<?xml version="1.0" encoding="utf-8" standalone="no"?>
<!DOCTYPE svg PUBLIC "-//W3C//DTD SVG 1.1//EN"
  "http://www.w3.org/Graphics/SVG/1.1/DTD/svg11.dtd">
<svg xmlns:xlink="http://www.w3.org/1999/xlink" width="288pt" height="288pt" viewBox="0 0 288 288" xmlns="http://www.w3.org/2000/svg" version="1.1">
 <metadata>
  <rdf:RDF xmlns:dc="http://purl.org/dc/elements/1.1/" xmlns:cc="http://creativecommons.org/ns#" xmlns:rdf="http://www.w3.org/1999/02/22-rdf-syntax-ns#">
   <cc:Work>
    <dc:type rdf:resource="http://purl.org/dc/dcmitype/StillImage"/>
    <dc:date>2026-04-21T12:23:05.241353</dc:date>
    <dc:format>image/svg+xml</dc:format>
    <dc:creator>
     <cc:Agent>
      <dc:title>Matplotlib v3.9.4, https://matplotlib.org/</dc:title>
     </cc:Agent>
    </dc:creator>
   </cc:Work>
  </rdf:RDF>
 </metadata>
 <defs>
  <style type="text/css">*{stroke-linejoin: round; stroke-linecap: butt}</style>
 </defs>
 <g id="figure_1">
  <g id="patch_1">
   <path d="M 0 288 
L 288 288 
L 288 0 
L 0 0 
z
" style="fill: #ffffff"/>
  </g>
  <g id="axes_1">
   <g id="patch_2">
    <path d="M 36 141.175385 
L 143.307692 141.175385 
L 143.307692 34.56 
L 36 34.56 
z
" style="fill: #ffffff"/>
   </g>
   <g id="PolyCollection_1">
    <defs>
     <path id="m40563238b0" d="M 62.193216 -146.824615 
L 62.193216 -221.900089 
L 63.038159 -225.407338 
L 63.883101 -228.219907 
L 64.728044 -230.579895 
L 65.572986 -233.045541 
L 66.417929 -236.044692 
L 67.262871 -239.470819 
L 68.107813 -242.733214 
L 68.952756 -245.222603 
L 69.797698 -246.750522 
L 70.642641 -247.573272 
L 71.487583 -248.04661 
L 72.332526 -248.323637 
L 73.177468 -248.363077 
L 74.022411 -248.081166 
L 74.867353 -247.416057 
L 75.712296 -246.328357 
L 76.557238 -244.798592 
L 77.40218 -242.815279 
L 78.247123 -240.412241 
L 79.092065 -237.748632 
L 79.937008 -235.072291 
L 80.78195 -232.51874 
L 81.626893 -229.940003 
L 82.471835 -226.998257 
L 83.316778 -223.502854 
L 84.16172 -219.64463 
L 85.006663 -215.849522 
L 85.851605 -212.423459 
L 86.696548 -209.375822 
L 87.54149 -206.533038 
L 88.386432 -203.747877 
L 89.231375 -201.013195 
L 90.076317 -198.426091 
L 90.92126 -196.049606 
L 91.766202 -193.803251 
L 92.611145 -191.525454 
L 93.456087 -189.182569 
L 94.30103 -186.977931 
L 95.145972 -185.176371 
L 95.990915 -183.830067 
L 96.835857 -182.742519 
L 97.6808 -181.679742 
L 98.525742 -180.54336 
L 99.370684 -179.368359 
L 100.215627 -178.256728 
L 101.060569 -177.333776 
L 101.905512 -176.688028 
L 102.750454 -176.289015 
L 103.595397 -175.987152 
L 104.440339 -175.65152 
L 105.285282 -175.30435 
L 105.285282 -146.824615 
L 105.285282 -146.824615 
L 104.440339 -146.824615 
L 103.595397 -146.824615 
L 102.750454 -146.824615 
L 101.905512 -146.824615 
L 101.060569 -146.824615 
L 100.215627 -146.824615 
L 99.370684 -146.824615 
L 98.525742 -146.824615 
L 97.6808 -146.824615 
L 96.835857 -146.824615 
L 95.990915 -146.824615 
L 95.145972 -146.824615 
L 94.30103 -146.824615 
L 93.456087 -146.824615 
L 92.611145 -146.824615 
L 91.766202 -146.824615 
L 90.92126 -146.824615 
L 90.076317 -146.824615 
L 89.231375 -146.824615 
L 88.386432 -146.824615 
L 87.54149 -146.824615 
L 86.696548 -146.824615 
L 85.851605 -146.824615 
L 85.006663 -146.824615 
L 84.16172 -146.824615 
L 83.316778 -146.824615 
L 82.471835 -146.824615 
L 81.626893 -146.824615 
L 80.78195 -146.824615 
L 79.937008 -146.824615 
L 79.092065 -146.824615 
L 78.247123 -146.824615 
L 77.40218 -146.824615 
L 76.557238 -146.824615 
L 75.712296 -146.824615 
L 74.867353 -146.824615 
L 74.022411 -146.824615 
L 73.177468 -146.824615 
L 72.332526 -146.824615 
L 71.487583 -146.824615 
L 70.642641 -146.824615 
L 69.797698 -146.824615 
L 68.952756 -146.824615 
L 68.107813 -146.824615 
L 67.262871 -146.824615 
L 66.417929 -146.824615 
L 65.572986 -146.824615 
L 64.728044 -146.824615 
L 63.883101 -146.824615 
L 63.038159 -146.824615 
L 62.193216 -146.824615 
z
"/>
    </defs>
    <g clip-path="url(#p2db571e357)">
     <use xlink:href="#m40563238b0" x="0" y="288" style="fill: #0072b2; fill-opacity: 0.28"/>
    </g>
   </g>
   <g id="matplotlib.axis_1">
    <g id="xtick_1">
     <g id="line2d_1">
      <defs>
       <path id="m02c25cc5a9" d="M 0 0 
L 0 -3.5 
" style="stroke: #111111; stroke-width: 0.8"/>
      </defs>
      <g>
       <use xlink:href="#m02c25cc5a9" x="51.972517" y="141.175385" style="fill: #111111; stroke: #111111; stroke-width: 0.8"/>
      </g>
     </g>
    </g>
    <g id="xtick_2">
     <g id="line2d_2">
      <g>
       <use xlink:href="#m02c25cc5a9" x="81.530588" y="141.175385" style="fill: #111111; stroke: #111111; stroke-width: 0.8"/>
      </g>
     </g>
    </g>
    <g id="xtick_3">
     <g id="line2d_3">
      <g>
       <use xlink:href="#m02c25cc5a9" x="111.088658" y="141.175385" style="fill: #111111; stroke: #111111; stroke-width: 0.8"/>
      </g>
     </g>
    </g>
    <g id="xtick_4">
     <g id="line2d_4">
      <g>
       <use xlink:href="#m02c25cc5a9" x="140.646729" y="141.175385" style="fill: #111111; stroke: #111111; stroke-width: 0.8"/>
      </g>
     </g>
    </g>
   </g>
   <g id="line2d_5">
    <path d="M 36 139.273013 
L 37.689885 138.560906 
L 39.37977 137.61614 
L 41.069655 136.48519 
L 41.914597 135.785638 
L 42.75954 134.886814 
L 43.604482 133.741148 
L 45.294367 130.844102 
L 46.984252 127.244184 
L 49.519079 120.741038 
L 50.364022 118.292904 
L 51.208964 115.404742 
L 52.898849 108.200462 
L 54.588734 100.737106 
L 57.968504 86.580626 
L 60.503331 74.387176 
L 62.193216 66.099911 
L 63.038159 62.592662 
L 63.883101 59.780093 
L 65.572986 54.954459 
L 66.417929 51.955308 
L 68.107813 45.266786 
L 68.952756 42.777397 
L 69.797698 41.249478 
L 70.642641 40.426728 
L 71.487583 39.95339 
L 72.332526 39.676363 
L 73.177468 39.636923 
L 74.022411 39.918834 
L 74.867353 40.583943 
L 75.712296 41.671643 
L 76.557238 43.201408 
L 77.40218 45.184721 
L 79.092065 50.251368 
L 82.471835 61.001743 
L 84.16172 68.35537 
L 85.851605 75.576541 
L 87.54149 81.466962 
L 90.076317 89.573909 
L 93.456087 98.817431 
L 94.30103 101.022069 
L 95.145972 102.823629 
L 95.990915 104.169933 
L 101.060569 110.666224 
L 101.905512 111.311972 
L 103.595397 112.012848 
L 106.130224 112.932071 
L 108.665051 113.268915 
L 109.509994 113.689669 
L 112.044821 115.315217 
L 112.889764 115.571996 
L 115.424591 115.784685 
L 116.269534 116.145802 
L 117.959419 117.416273 
L 119.649303 118.620743 
L 121.339188 119.354226 
L 123.029073 119.736515 
L 124.718958 120.099551 
L 125.563901 120.537891 
L 126.408843 121.25979 
L 128.098728 123.361725 
L 129.788613 125.382188 
L 132.32344 127.924099 
L 134.013325 130.207299 
L 135.70321 132.62214 
L 137.393095 134.600746 
L 139.927922 136.934082 
L 141.617807 138.309369 
L 143.307692 139.343991 
L 143.307692 139.343991 
" clip-path="url(#p2db571e357)" style="fill: none; stroke: #0072b2; stroke-opacity: 0.92; stroke-width: 1.8; stroke-linecap: square"/>
   </g>
   <g id="line2d_6">
    <path d="M 77.627968 141.175385 
L 77.627968 45.826868 
" clip-path="url(#p2db571e357)" style="fill: none; stroke-dasharray: 4.44,1.92; stroke-dashoffset: 0; stroke: #0072b2; stroke-opacity: 0.98; stroke-width: 1.2"/>
   </g>
   <g id="patch_3">
    <path d="M 36 141.175385 
L 143.307692 141.175385 
" style="fill: none; stroke: #cccccc; stroke-linejoin: miter; stroke-linecap: square"/>
   </g>
   <g id="text_1">
    <!-- $x$ = $1.30^{+1.41}_{-0.78}$ -->
    <g style="fill: #111111" transform="translate(62.113846 29.56) scale(0.085 -0.085)">
     <defs>
      <path id="DejaVuSans-Oblique-78" d="M 3841 3500 
L 2234 1784 
L 3219 0 
L 2559 0 
L 1819 1388 
L 531 0 
L -166 0 
L 1556 1844 
L 641 3500 
L 1300 3500 
L 1972 2234 
L 3144 3500 
L 3841 3500 
z
" transform="scale(0.015625)"/>
      <path id="DejaVuSans-20" transform="scale(0.015625)"/>
      <path id="DejaVuSans-3d" d="M 678 2906 
L 4684 2906 
L 4684 2381 
L 678 2381 
L 678 2906 
z
M 678 1631 
L 4684 1631 
L 4684 1100 
L 678 1100 
L 678 1631 
z
" transform="scale(0.015625)"/>
      <path id="DejaVuSans-31" d="M 794 531 
L 1825 531 
L 1825 4091 
L 703 3866 
L 703 4441 
L 1819 4666 
L 2450 4666 
L 2450 531 
L 3481 531 
L 3481 0 
L 794 0 
L 794 531 
z
" transform="scale(0.015625)"/>
      <path id="DejaVuSans-2e" d="M 684 794 
L 1344 794 
L 1344 0 
L 684 0 
L 684 794 
z
" transform="scale(0.015625)"/>
      <path id="DejaVuSans-33" d="M 2597 2516 
Q 3050 2419 3304 2112 
Q 3559 1806 3559 1356 
Q 3559 666 3084 287 
Q 2609 -91 1734 -91 
Q 1441 -91 1130 -33 
Q 819 25 488 141 
L 488 750 
Q 750 597 1062 519 
Q 1375 441 1716 441 
Q 2309 441 2620 675 
Q 2931 909 2931 1356 
Q 2931 1769 2642 2001 
Q 2353 2234 1838 2234 
L 1294 2234 
L 1294 2753 
L 1863 2753 
Q 2328 2753 2575 2939 
Q 2822 3125 2822 3475 
Q 2822 3834 2567 4026 
Q 2313 4219 1838 4219 
Q 1578 4219 1281 4162 
Q 984 4106 628 3988 
L 628 4550 
Q 988 4650 1302 4700 
Q 1616 4750 1894 4750 
Q 2613 4750 3031 4423 
Q 3450 4097 3450 3541 
Q 3450 3153 3228 2886 
Q 3006 2619 2597 2516 
z
" transform="scale(0.015625)"/>
      <path id="DejaVuSans-30" d="M 2034 4250 
Q 1547 4250 1301 3770 
Q 1056 3291 1056 2328 
Q 1056 1369 1301 889 
Q 1547 409 2034 409 
Q 2525 409 2770 889 
Q 3016 1369 3016 2328 
Q 3016 3291 2770 3770 
Q 2525 4250 2034 4250 
z
M 2034 4750 
Q 2819 4750 3233 4129 
Q 3647 3509 3647 2328 
Q 3647 1150 3233 529 
Q 2819 -91 2034 -91 
Q 1250 -91 836 529 
Q 422 1150 422 2328 
Q 422 3509 836 4129 
Q 1250 4750 2034 4750 
z
" transform="scale(0.015625)"/>
      <path id="DejaVuSans-2b" d="M 2944 4013 
L 2944 2272 
L 4684 2272 
L 4684 1741 
L 2944 1741 
L 2944 0 
L 2419 0 
L 2419 1741 
L 678 1741 
L 678 2272 
L 2419 2272 
L 2419 4013 
L 2944 4013 
z
" transform="scale(0.015625)"/>
      <path id="DejaVuSans-34" d="M 2419 4116 
L 825 1625 
L 2419 1625 
L 2419 4116 
z
M 2253 4666 
L 3047 4666 
L 3047 1625 
L 3713 1625 
L 3713 1100 
L 3047 1100 
L 3047 0 
L 2419 0 
L 2419 1100 
L 313 1100 
L 313 1709 
L 2253 4666 
z
" transform="scale(0.015625)"/>
      <path id="DejaVuSans-2212" d="M 678 2272 
L 4684 2272 
L 4684 1741 
L 678 1741 
L 678 2272 
z
" transform="scale(0.015625)"/>
      <path id="DejaVuSans-37" d="M 525 4666 
L 3525 4666 
L 3525 4397 
L 1831 0 
L 1172 0 
L 2766 4134 
L 525 4134 
L 525 4666 
z
" transform="scale(0.015625)"/>
      <path id="DejaVuSans-38" d="M 2034 2216 
Q 1584 2216 1326 1975 
Q 1069 1734 1069 1313 
Q 1069 891 1326 650 
Q 1584 409 2034 409 
Q 2484 409 2743 651 
Q 3003 894 3003 1313 
Q 3003 1734 2745 1975 
Q 2488 2216 2034 2216 
z
M 1403 2484 
Q 997 2584 770 2862 
Q 544 3141 544 3541 
Q 544 4100 942 4425 
Q 1341 4750 2034 4750 
Q 2731 4750 3128 4425 
Q 3525 4100 3525 3541 
Q 3525 3141 3298 2862 
Q 3072 2584 2669 2484 
Q 3125 2378 3379 2068 
Q 3634 1759 3634 1313 
Q 3634 634 3220 271 
Q 2806 -91 2034 -91 
Q 1263 -91 848 271 
Q 434 634 434 1313 
Q 434 1759 690 2068 
Q 947 2378 1403 2484 
z
M 1172 3481 
Q 1172 3119 1398 2916 
Q 1625 2713 2034 2713 
Q 2441 2713 2670 2916 
Q 2900 3119 2900 3481 
Q 2900 3844 2670 4047 
Q 2441 4250 2034 4250 
Q 1625 4250 1398 4047 
Q 1172 3844 1172 3481 
z
" transform="scale(0.015625)"/>
     </defs>
     <use xlink:href="#DejaVuSans-Oblique-78" transform="translate(0 0.684375)"/>
     <use xlink:href="#DejaVuSans-20" transform="translate(59.179688 0.684375)"/>
     <use xlink:href="#DejaVuSans-3d" transform="translate(90.966797 0.684375)"/>
     <use xlink:href="#DejaVuSans-20" transform="translate(174.755859 0.684375)"/>
     <use xlink:href="#DejaVuSans-31" transform="translate(206.542969 0.684375)"/>
     <use xlink:href="#DejaVuSans-2e" transform="translate(270.166016 0.684375)"/>
     <use xlink:href="#DejaVuSans-33" transform="translate(301.953125 0.684375)"/>
     <use xlink:href="#DejaVuSans-30" transform="translate(365.576172 0.684375)"/>
     <use xlink:href="#DejaVuSans-2b" transform="translate(430.15625 38.965625) scale(0.7)"/>
     <use xlink:href="#DejaVuSans-31" transform="translate(488.808594 38.965625) scale(0.7)"/>
     <use xlink:href="#DejaVuSans-2e" transform="translate(533.344727 38.965625) scale(0.7)"/>
     <use xlink:href="#DejaVuSans-34" transform="translate(555.595703 38.965625) scale(0.7)"/>
     <use xlink:href="#DejaVuSans-31" transform="translate(600.131836 38.965625) scale(0.7)"/>
     <use xlink:href="#DejaVuSans-2212" transform="translate(430.15625 -26.659375) scale(0.7)"/>
     <use xlink:href="#DejaVuSans-30" transform="translate(488.808594 -26.659375) scale(0.7)"/>
     <use xlink:href="#DejaVuSans-2e" transform="translate(533.344727 -26.659375) scale(0.7)"/>
     <use xlink:href="#DejaVuSans-37" transform="translate(550.170703 -26.659375) scale(0.7)"/>
     <use xlink:href="#DejaVuSans-38" transform="translate(594.706836 -26.659375) scale(0.7)"/>
    </g>
   </g>
  </g>
  <g id="axes_2"/>
  <g id="axes_3">
   <g id="patch_4">
    <path d="M 36 256.32 
L 143.307692 256.32 
L 143.307692 149.704615 
L 36 149.704615 
z
" style="fill: #ffffff"/>
   </g>
   <g id="QuadContourSet_1">
    <path d="M 106.975167 247.227129 
L 107.820109 247.343796 
L 108.665051 247.368761 
L 109.509994 247.298654 
L 110.354936 247.148897 
L 110.630784 247.085597 
L 111.199879 246.967616 
L 112.044821 246.798765 
L 112.889764 246.680954 
L 113.734706 246.639153 
L 114.579649 246.666455 
L 115.424591 246.732148 
L 116.269534 246.801453 
L 117.114476 246.850403 
L 117.959419 246.869621 
L 118.804361 246.860817 
L 119.649303 246.83086 
L 120.494246 246.785851 
L 121.339188 246.726899 
L 122.184131 246.649385 
L 123.029073 246.545485 
L 123.874016 246.407273 
L 124.637284 246.246105 
L 124.718958 246.229861 
L 125.563901 246.023727 
L 126.408843 245.778868 
L 127.253786 245.499993 
L 127.519658 245.406614 
L 128.098728 245.204799 
L 128.943671 244.891877 
L 129.751456 244.567123 
L 129.788613 244.552334 
L 130.633555 244.192625 
L 131.478498 243.77683 
L 131.566963 243.727632 
L 132.32344 243.305045 
L 132.951914 242.888141 
L 133.168383 242.739377 
L 134.013325 242.064122 
L 134.030976 242.048649 
L 134.858268 241.2462 
L 134.893887 241.209158 
L 135.595553 240.369667 
L 135.70321 240.211246 
L 136.160334 239.530176 
L 136.548153 238.753916 
L 136.580528 238.690684 
L 136.901222 237.851193 
L 137.107733 237.011702 
L 137.221953 236.172211 
L 137.26022 235.33272 
L 137.231603 234.493228 
L 137.135896 233.653737 
L 136.961748 232.814246 
L 136.686413 231.974755 
L 136.548153 231.674224 
L 136.307341 231.135263 
L 135.790357 230.295772 
L 135.70321 230.182131 
L 135.124728 229.456281 
L 134.858268 229.179005 
L 134.249719 228.61679 
L 134.013325 228.424722 
L 133.168383 227.860307 
L 133.012665 227.777299 
L 132.32344 227.433359 
L 131.478498 227.094923 
L 131.06424 226.937807 
L 130.633555 226.77428 
L 129.788613 226.411218 
L 129.174582 226.098316 
L 128.943671 225.976903 
L 128.098728 225.473427 
L 127.740671 225.258825 
L 127.253786 224.965564 
L 126.408843 224.525739 
L 126.148026 224.419334 
L 125.563901 224.182436 
L 124.718958 223.939247 
L 123.874016 223.769541 
L 123.029073 223.63947 
L 122.599028 223.579843 
L 122.184131 223.519775 
L 121.339188 223.394279 
L 120.494246 223.256746 
L 119.649303 223.100987 
L 118.804361 222.927264 
L 117.959419 222.745196 
L 117.936285 222.740351 
L 117.114476 222.552912 
L 116.269534 222.384238 
L 115.424591 222.244795 
L 114.579649 222.127897 
L 113.734706 222.018583 
L 112.905634 221.90086 
L 112.889764 221.89824 
L 112.044821 221.731605 
L 111.199879 221.522031 
L 110.354936 221.268784 
L 109.74461 221.061369 
L 109.509994 220.973082 
L 108.665051 220.630805 
L 107.820109 220.272071 
L 107.710513 220.221878 
L 106.975167 219.851507 
L 106.130224 219.400959 
L 106.096451 219.382386 
L 105.285282 218.898806 
L 104.63827 218.542895 
L 104.440339 218.428892 
L 103.595397 218.02038 
L 102.750454 217.707025 
L 102.738958 217.703404 
L 101.905512 217.441725 
L 101.060569 217.190162 
L 100.215627 216.913743 
L 100.087974 216.863913 
L 99.370684 216.575617 
L 98.525742 216.182374 
L 98.227679 216.024422 
L 97.6808 215.714679 
L 96.852137 215.18493 
L 96.835857 215.173662 
L 95.990915 214.516275 
L 95.791857 214.345439 
L 95.145972 213.755882 
L 94.887649 213.505948 
L 94.30103 212.91365 
L 94.060492 212.666457 
L 93.456087 212.018928 
L 93.276014 211.826965 
L 92.611145 211.073127 
L 92.534965 210.987474 
L 91.846379 210.147983 
L 91.766202 210.04333 
L 91.201174 209.308492 
L 90.92126 208.929222 
L 90.575483 208.469001 
L 90.076317 207.804722 
L 89.941894 207.629509 
L 89.288586 206.790018 
L 89.231375 206.717188 
L 88.640557 205.950527 
L 88.386432 205.60901 
L 88.036832 205.111036 
L 87.54149 204.33783 
L 87.502039 204.271545 
L 87.05425 203.432053 
L 86.696548 202.666331 
L 86.663934 202.592562 
L 86.328223 201.753071 
L 86.016546 200.91358 
L 85.851605 200.448124 
L 85.719959 200.074088 
L 85.438249 199.234597 
L 85.172185 198.395106 
L 85.006663 197.807053 
L 84.937344 197.555615 
L 84.752428 196.716124 
L 84.61353 195.876632 
L 84.517573 195.037141 
L 84.459189 194.19765 
L 84.435194 193.358159 
L 84.445888 192.518667 
L 84.492275 191.679176 
L 84.571965 190.839685 
L 84.678019 190.000194 
L 84.801895 189.160703 
L 84.937314 188.321211 
L 85.006663 187.927136 
L 85.089675 187.48172 
L 85.257092 186.642229 
L 85.43436 185.802738 
L 85.623079 184.963247 
L 85.822159 184.123755 
L 85.851605 184.008436 
L 86.036794 183.284264 
L 86.259083 182.444773 
L 86.488102 181.605282 
L 86.696548 180.875553 
L 86.72924 180.76579 
L 87.004572 179.926299 
L 87.300769 179.086808 
L 87.54149 178.448325 
L 87.623257 178.247317 
L 87.979817 177.407826 
L 88.329332 176.568334 
L 88.386432 176.426221 
L 88.675905 175.728843 
L 88.9882 174.889352 
L 89.231375 174.147547 
L 89.263502 174.049861 
L 89.514132 173.210369 
L 89.740461 172.370878 
L 89.951906 171.531387 
L 90.076317 171.015166 
L 90.156161 170.691896 
L 90.352229 169.852405 
L 90.524263 169.012913 
L 90.660447 168.173422 
L 90.750194 167.333931 
L 90.785835 166.49444 
L 90.762334 165.654949 
L 90.675804 164.815457 
L 90.52181 163.975966 
L 90.293965 163.136475 
L 90.076317 162.536259 
L 89.98413 162.296984 
L 89.582486 161.457492 
L 89.231375 160.864018 
L 89.077444 160.618001 
L 88.471824 159.77851 
L 88.386432 159.671871 
L 87.786776 158.939019 
L 87.54149 158.663774 
L 87.022638 158.099528 
L 86.696548 157.773226 
L 86.136157 157.260036 
L 85.851605 157.021916 
L 85.006663 156.424996 
L 84.99917 156.420545 
L 84.16172 155.956077 
L 83.316778 155.609902 
L 83.222111 155.581054 
L 82.471835 155.35475 
L 81.626893 155.192221 
L 80.78195 155.10541 
L 79.937008 155.073662 
L 79.092065 155.082471 
L 78.247123 155.129819 
L 77.40218 155.225747 
L 76.557238 155.386644 
L 75.870867 155.581054 
L 75.712296 155.625395 
L 74.867353 155.934807 
L 74.022411 156.328189 
L 73.849962 156.420545 
L 73.177468 156.782086 
L 72.382911 157.260036 
L 72.332526 157.290701 
L 71.487583 157.821414 
L 71.056396 158.099528 
L 70.642641 158.369002 
L 69.797698 158.929166 
L 69.783148 158.939019 
L 68.952756 159.508896 
L 68.589542 159.77851 
L 68.107813 160.142313 
L 67.541333 160.618001 
L 67.262871 160.858614 
L 66.647026 161.457492 
L 66.417929 161.693001 
L 65.890249 162.296984 
L 65.572986 162.692886 
L 65.241421 163.136475 
L 64.728044 163.889434 
L 64.66977 163.975966 
L 64.123758 164.815457 
L 63.883101 165.19198 
L 63.56859 165.654949 
L 63.038159 166.418706 
L 62.981005 166.49444 
L 62.329881 167.333931 
L 62.193216 167.507745 
L 61.643172 168.173422 
L 61.348274 168.536362 
L 60.956954 169.012913 
L 60.503331 169.591483 
L 60.29999 169.852405 
L 59.692078 170.691896 
L 59.658389 170.742147 
L 59.132876 171.531387 
L 58.813446 172.072488 
L 58.634623 172.370878 
L 58.184266 173.210369 
L 57.968504 173.652776 
L 57.767407 174.049861 
L 57.359865 174.889352 
L 57.123561 175.36857 
L 56.937071 175.728843 
L 56.467426 176.568334 
L 56.278619 176.871579 
L 55.930907 177.407826 
L 55.433677 178.10743 
L 55.332044 178.247317 
L 54.688496 179.086808 
L 54.588734 179.217603 
L 54.051725 179.926299 
L 53.743792 180.370492 
L 53.473719 180.76579 
L 52.982285 181.605282 
L 52.898849 181.776706 
L 52.573881 182.444773 
L 52.2442 183.284264 
L 52.053907 183.863787 
L 51.966318 184.123755 
L 51.711188 184.963247 
L 51.463636 185.802738 
L 51.208964 186.624963 
L 51.203377 186.642229 
L 50.906697 187.48172 
L 50.586529 188.321211 
L 50.364022 188.878765 
L 50.248129 189.160703 
L 49.904872 190.000194 
L 49.582208 190.839685 
L 49.519079 191.02139 
L 49.284496 191.679176 
L 49.022145 192.518667 
L 48.797736 193.358159 
L 48.674137 193.906261 
L 48.606195 194.19765 
L 48.440128 195.037141 
L 48.296707 195.876632 
L 48.169768 196.716124 
L 48.054692 197.555615 
L 47.948149 198.395106 
L 47.846904 199.234597 
L 47.829194 199.384178 
L 47.739012 200.074088 
L 47.626011 200.91358 
L 47.510081 201.753071 
L 47.397074 202.592562 
L 47.295746 203.432053 
L 47.212599 204.271545 
L 47.147958 205.111036 
L 47.096671 205.950527 
L 47.053129 206.790018 
L 47.017123 207.629509 
L 46.997043 208.469001 
L 47.00908 209.308492 
L 47.073241 210.147983 
L 47.207698 210.987474 
L 47.422906 211.826965 
L 47.716871 212.666457 
L 47.829194 212.937708 
L 48.064761 213.505948 
L 48.437786 214.345439 
L 48.674137 214.885677 
L 48.797662 215.18493 
L 49.113861 216.024422 
L 49.397678 216.863913 
L 49.519079 217.259855 
L 49.645778 217.703404 
L 49.879138 218.542895 
L 50.126404 219.382386 
L 50.364022 220.100085 
L 50.402738 220.221878 
L 50.704986 221.061369 
L 51.058458 221.90086 
L 51.208964 222.217487 
L 51.447665 222.740351 
L 51.878549 223.579843 
L 52.053907 223.889571 
L 52.355071 224.419334 
L 52.897962 225.258825 
L 52.898849 225.260082 
L 53.518036 226.098316 
L 53.743792 226.370884 
L 54.229145 226.937807 
L 54.588734 227.323492 
L 55.012008 227.777299 
L 55.433677 228.208373 
L 55.821115 228.61679 
L 56.278619 229.094322 
L 56.609072 229.456281 
L 57.123561 230.027694 
L 57.355351 230.295772 
L 57.968504 231.011344 
L 58.074782 231.135263 
L 58.809442 231.974755 
L 58.813446 231.979193 
L 59.634702 232.814246 
L 59.658389 232.836991 
L 60.503331 233.537433 
L 60.67489 233.653737 
L 61.348274 234.096155 
L 62.09574 234.493228 
L 62.193216 234.545182 
L 63.038159 234.951562 
L 63.883101 235.33272 
L 63.883101 235.33272 
L 64.728044 235.757625 
L 65.497628 236.172211 
L 65.572986 236.214915 
L 66.417929 236.743891 
L 66.819566 237.011702 
L 67.262871 237.315706 
L 68.019427 237.851193 
L 68.107813 237.915216 
L 68.952756 238.539798 
L 69.163122 238.690684 
L 69.797698 239.147599 
L 70.393379 239.530176 
L 70.642641 239.686362 
L 71.487583 240.136516 
L 72.018262 240.369667 
L 72.332526 240.503126 
L 73.177468 240.830993 
L 74.022411 241.14692 
L 74.174118 241.209158 
L 74.867353 241.502539 
L 75.712296 241.88646 
L 76.047277 242.048649 
L 76.557238 242.311325 
L 77.40218 242.743447 
L 77.698506 242.888141 
L 78.247123 243.171592 
L 79.092065 243.561317 
L 79.507312 243.727632 
L 79.937008 243.91184 
L 80.78195 244.212457 
L 81.626893 244.447282 
L 82.195378 244.567123 
L 82.471835 244.630031 
L 83.316778 244.780313 
L 84.16172 244.915645 
L 85.006663 245.060191 
L 85.851605 245.223047 
L 86.696548 245.397063 
L 86.744424 245.406614 
L 87.54149 245.574812 
L 88.386432 245.735353 
L 89.231375 245.877852 
L 90.076317 246.011316 
L 90.92126 246.147843 
L 91.478198 246.246105 
L 91.766202 246.298154 
L 92.611145 246.465527 
L 93.456087 246.633987 
L 94.30103 246.778544 
L 95.145972 246.868015 
L 95.990915 246.877533 
L 96.835857 246.80067 
L 97.6808 246.654826 
L 98.525742 246.478272 
L 99.370684 246.319466 
L 99.991601 246.246105 
L 100.215627 246.222754 
L 101.060569 246.203714 
L 101.868997 246.246105 
L 101.905512 246.248194 
L 102.750454 246.350732 
L 103.595397 246.490854 
L 104.440339 246.660658 
L 105.285282 246.85188 
L 106.130224 247.045994 
L 106.329443 247.085597 
z
M 105.677743 237.851193 
L 105.285282 237.759332 
L 104.440339 237.626554 
L 103.595397 237.549111 
L 102.750454 237.498495 
L 101.905512 237.448477 
L 101.060569 237.386845 
L 100.215627 237.313397 
L 99.370684 237.230515 
L 98.525742 237.13609 
L 97.6808 237.024099 
L 97.602313 237.011702 
L 96.835857 236.883027 
L 95.990915 236.732408 
L 95.145972 236.591449 
L 94.30103 236.47577 
L 93.456087 236.388724 
L 92.611145 236.321395 
L 91.766202 236.259574 
L 90.92126 236.191835 
L 90.706569 236.172211 
L 90.076317 236.107676 
L 89.231375 236.013525 
L 88.386432 235.916646 
L 87.54149 235.816494 
L 86.696548 235.702944 
L 85.851605 235.555494 
L 85.006663 235.34547 
L 84.969872 235.33272 
L 84.16172 235.007668 
L 83.316778 234.570168 
L 83.186386 234.493228 
L 82.471835 234.032324 
L 81.861181 233.653737 
L 81.626893 233.503322 
L 80.78195 233.050102 
L 80.183144 232.814246 
L 79.937008 232.717448 
L 79.092065 232.499196 
L 78.247123 232.365272 
L 77.40218 232.25542 
L 76.557238 232.108626 
L 76.070488 231.974755 
L 75.712296 231.875824 
L 74.867353 231.526951 
L 74.153577 231.135263 
L 74.022411 231.059496 
L 73.177468 230.465907 
L 72.95986 230.295772 
L 72.332526 229.788027 
L 71.933523 229.456281 
L 71.487583 229.082366 
L 70.918365 228.61679 
L 70.642641 228.391002 
L 69.861563 227.777299 
L 69.797698 227.726541 
L 68.952756 227.070485 
L 68.781378 226.937807 
L 68.107813 226.400711 
L 67.735839 226.098316 
L 67.262871 225.701391 
L 66.743163 225.258825 
L 66.417929 224.97242 
L 65.786464 224.419334 
L 65.572986 224.223035 
L 64.868579 223.579843 
L 64.728044 223.440485 
L 64.040481 222.740351 
L 63.883101 222.559083 
L 63.351003 221.90086 
L 63.038159 221.454314 
L 62.787133 221.061369 
L 62.306738 220.221878 
L 62.193216 220.01543 
L 61.872477 219.382386 
L 61.449996 218.542895 
L 61.348274 218.345031 
L 61.038539 217.703404 
L 60.640067 216.863913 
L 60.503331 216.564414 
L 60.261259 216.024422 
L 59.910922 215.18493 
L 59.658389 214.530896 
L 59.584327 214.345439 
L 59.275369 213.505948 
L 58.983474 212.666457 
L 58.813446 212.154376 
L 58.699097 211.826965 
L 58.420584 210.987474 
L 58.154235 210.147983 
L 57.968504 209.524135 
L 57.901374 209.308492 
L 57.665304 208.469001 
L 57.459791 207.629509 
L 57.291648 206.790018 
L 57.167236 205.950527 
L 57.123561 205.4648 
L 57.093844 205.111036 
L 57.0757 204.271545 
L 57.114457 203.432053 
L 57.123561 203.355036 
L 57.213534 202.592562 
L 57.367957 201.753071 
L 57.570517 200.91358 
L 57.813576 200.074088 
L 57.968504 199.603177 
L 58.090418 199.234597 
L 58.395133 198.395106 
L 58.729655 197.555615 
L 58.813446 197.356357 
L 59.10548 196.716124 
L 59.523237 195.876632 
L 59.658389 195.617483 
L 59.98874 195.037141 
L 60.470031 194.19765 
L 60.503331 194.136783 
L 60.935721 193.358159 
L 61.343388 192.518667 
L 61.348274 192.507347 
L 61.698969 191.679176 
L 62.002533 190.839685 
L 62.193216 190.268507 
L 62.284996 190.000194 
L 62.567183 189.160703 
L 62.842561 188.321211 
L 63.038159 187.716147 
L 63.120571 187.48172 
L 63.412963 186.642229 
L 63.704808 185.802738 
L 63.883101 185.32288 
L 64.044626 184.963247 
L 64.485485 184.123755 
L 64.728044 183.74126 
L 65.090704 183.284264 
L 65.572986 182.746792 
L 65.870144 182.444773 
L 66.417929 181.871417 
L 66.652837 181.605282 
L 67.260231 180.76579 
L 67.262871 180.761278 
L 67.701943 179.926299 
L 68.015722 179.086808 
L 68.107813 178.775931 
L 68.268999 178.247317 
L 68.487128 177.407826 
L 68.686884 176.568334 
L 68.888023 175.728843 
L 68.952756 175.487581 
L 69.133286 174.889352 
L 69.420623 174.049861 
L 69.755155 173.210369 
L 69.797698 173.123996 
L 70.213166 172.370878 
L 70.642641 171.708589 
L 70.771016 171.531387 
L 71.461937 170.691896 
L 71.487583 170.663497 
L 72.260088 169.852405 
L 72.332526 169.777998 
L 73.105657 169.012913 
L 73.177468 168.942212 
L 74.022411 168.178992 
L 74.029741 168.173422 
L 74.867353 167.596548 
L 75.392094 167.333931 
L 75.712296 167.19389 
L 76.557238 166.979537 
L 77.40218 166.901232 
L 78.247123 166.971777 
L 79.092065 167.276054 
L 79.174822 167.333931 
L 79.728361 168.173422 
L 79.839418 169.012913 
L 79.781176 169.852405 
L 79.658087 170.691896 
L 79.51044 171.531387 
L 79.345346 172.370878 
L 79.151487 173.210369 
L 79.092065 173.421531 
L 78.888022 174.049861 
L 78.56676 174.889352 
L 78.247123 175.668247 
L 78.219601 175.728843 
L 77.858926 176.568334 
L 77.558127 177.407826 
L 77.40218 177.925011 
L 77.299892 178.247317 
L 77.053095 179.086808 
L 76.800293 179.926299 
L 76.557238 180.646725 
L 76.512241 180.76579 
L 76.154589 181.605282 
L 75.779214 182.444773 
L 75.712296 182.598325 
L 75.388225 183.284264 
L 75.047085 184.123755 
L 74.867353 184.677496 
L 74.768659 184.963247 
L 74.546361 185.802738 
L 74.382491 186.642229 
L 74.25498 187.48172 
L 74.146743 188.321211 
L 74.050018 189.160703 
L 74.022411 189.423532 
L 73.962109 190.000194 
L 73.89133 190.839685 
L 73.84279 191.679176 
L 73.814901 192.518667 
L 73.801065 193.358159 
L 73.79178 194.19765 
L 73.777762 195.037141 
L 73.753036 195.876632 
L 73.717325 196.716124 
L 73.677316 197.555615 
L 73.646617 198.395106 
L 73.643874 199.234597 
L 73.688441 200.074088 
L 73.794021 200.91358 
L 73.963392 201.753071 
L 74.022411 201.967258 
L 74.201989 202.592562 
L 74.486524 203.432053 
L 74.797588 204.271545 
L 74.867353 204.440543 
L 75.156138 205.111036 
L 75.554186 205.950527 
L 75.712296 206.244187 
L 76.023019 206.790018 
L 76.557238 207.629509 
L 76.557238 207.629509 
L 77.144493 208.469001 
L 77.40218 208.836545 
L 77.724827 209.308492 
L 78.247123 210.12244 
L 78.263393 210.147983 
L 78.767468 210.987474 
L 79.092065 211.566754 
L 79.250576 211.826965 
L 79.758045 212.666457 
L 79.937008 212.959171 
L 80.324496 213.505948 
L 80.78195 214.11792 
L 80.969646 214.345439 
L 81.626893 215.104471 
L 81.698328 215.18493 
L 82.471835 216.003152 
L 82.491866 216.024422 
L 83.316778 216.823668 
L 83.358698 216.863913 
L 84.16172 217.570916 
L 84.315234 217.703404 
L 85.006663 218.282996 
L 85.320678 218.542895 
L 85.851605 219.00612 
L 86.288844 219.382386 
L 86.696548 219.77527 
L 87.183665 220.221878 
L 87.54149 220.587495 
L 88.059246 221.061369 
L 88.386432 221.370503 
L 89.038678 221.90086 
L 89.231375 222.048372 
L 90.076317 222.629503 
L 90.242064 222.740351 
L 90.92126 223.148752 
L 91.668232 223.579843 
L 91.766202 223.6308 
L 92.611145 224.078535 
L 93.292422 224.419334 
L 93.456087 224.497904 
L 94.30103 224.897447 
L 95.112712 225.258825 
L 95.145972 225.274175 
L 95.990915 225.64548 
L 96.835857 225.997997 
L 97.076104 226.098316 
L 97.6808 226.372264 
L 98.525742 226.784901 
L 98.803374 226.937807 
L 99.370684 227.28442 
L 100.106 227.777299 
L 100.215627 227.858007 
L 101.060569 228.478162 
L 101.270308 228.61679 
L 101.905512 229.050971 
L 102.660392 229.456281 
L 102.750454 229.506274 
L 103.595397 229.872416 
L 104.440339 230.154994 
L 104.95156 230.295772 
L 105.285282 230.39325 
L 106.130224 230.584853 
L 106.975167 230.706949 
L 107.820109 230.766375 
L 108.665051 230.784175 
L 109.509994 230.781386 
L 110.354936 230.769436 
L 111.199879 230.751434 
L 112.044821 230.729712 
L 112.889764 230.714439 
L 113.734706 230.728829 
L 114.579649 230.805657 
L 115.424591 230.973749 
L 115.929001 231.135263 
L 116.269534 231.279762 
L 117.114476 231.746423 
L 117.475742 231.974755 
L 117.959419 232.399963 
L 118.424145 232.814246 
L 118.804361 233.38837 
L 118.996293 233.653737 
L 119.127951 234.493228 
L 118.804361 235.158028 
L 118.720185 235.33272 
L 117.959419 236.045773 
L 117.831506 236.172211 
L 117.114476 236.661804 
L 116.627594 237.011702 
L 116.269534 237.209975 
L 115.424591 237.652903 
L 114.980756 237.851193 
L 114.579649 237.988958 
L 113.734706 238.201652 
L 112.889764 238.348987 
L 112.044821 238.454136 
L 111.199879 238.531313 
L 110.354936 238.575408 
L 109.509994 238.567846 
L 108.665051 238.491149 
L 107.820109 238.343466 
L 106.975167 238.146807 
L 106.130224 237.942393 
z
" clip-path="url(#p7acbf0937a)" style="fill: #98bed1; fill-opacity: 0.32"/>
    <path d="M 106.130224 237.942393 
L 106.975167 238.146807 
L 107.820109 238.343466 
L 108.665051 238.491149 
L 109.509994 238.567846 
L 110.354936 238.575408 
L 111.199879 238.531313 
L 112.044821 238.454136 
L 112.889764 238.348987 
L 113.734706 238.201652 
L 114.579649 237.988958 
L 114.980756 237.851193 
L 115.424591 237.652903 
L 116.269534 237.209975 
L 116.627594 237.011702 
L 117.114476 236.661804 
L 117.831506 236.172211 
L 117.959419 236.045773 
L 118.720185 235.33272 
L 118.804361 235.158028 
L 119.127951 234.493228 
L 118.996293 233.653737 
L 118.804361 233.38837 
L 118.424145 232.814246 
L 117.959419 232.399963 
L 117.475742 231.974755 
L 117.114476 231.746423 
L 116.269534 231.279762 
L 115.929001 231.135263 
L 115.424591 230.973749 
L 114.579649 230.805657 
L 113.734706 230.728829 
L 112.889764 230.714439 
L 112.044821 230.729712 
L 111.199879 230.751434 
L 110.354936 230.769436 
L 109.509994 230.781386 
L 108.665051 230.784175 
L 107.820109 230.766375 
L 106.975167 230.706949 
L 106.130224 230.584853 
L 105.285282 230.39325 
L 104.95156 230.295772 
L 104.440339 230.154994 
L 103.595397 229.872416 
L 102.750454 229.506274 
L 102.660392 229.456281 
L 101.905512 229.050971 
L 101.270308 228.61679 
L 101.060569 228.478162 
L 100.215627 227.858007 
L 100.106 227.777299 
L 99.370684 227.28442 
L 98.803374 226.937807 
L 98.525742 226.784901 
L 97.6808 226.372264 
L 97.076104 226.098316 
L 96.835857 225.997997 
L 95.990915 225.64548 
L 95.145972 225.274175 
L 95.112712 225.258825 
L 94.30103 224.897447 
L 93.456087 224.497904 
L 93.292422 224.419334 
L 92.611145 224.078535 
L 91.766202 223.6308 
L 91.668232 223.579843 
L 90.92126 223.148752 
L 90.242064 222.740351 
L 90.076317 222.629503 
L 89.231375 222.048372 
L 89.038678 221.90086 
L 88.386432 221.370503 
L 88.059246 221.061369 
L 87.54149 220.587495 
L 87.183665 220.221878 
L 86.696548 219.77527 
L 86.288844 219.382386 
L 85.851605 219.00612 
L 85.320678 218.542895 
L 85.006663 218.282996 
L 84.315234 217.703404 
L 84.16172 217.570916 
L 83.358698 216.863913 
L 83.316778 216.823668 
L 82.491866 216.024422 
L 82.471835 216.003152 
L 81.698328 215.18493 
L 81.626893 215.104471 
L 80.969646 214.345439 
L 80.78195 214.11792 
L 80.324496 213.505948 
L 79.937008 212.959171 
L 79.758045 212.666457 
L 79.250576 211.826965 
L 79.092065 211.566754 
L 78.767468 210.987474 
L 78.263393 210.147983 
L 78.247123 210.12244 
L 77.724827 209.308492 
L 77.40218 208.836545 
L 77.144493 208.469001 
L 76.557238 207.629509 
L 76.557238 207.629509 
L 76.023019 206.790018 
L 75.712296 206.244187 
L 75.554186 205.950527 
L 75.156138 205.111036 
L 74.867353 204.440543 
L 74.797588 204.271545 
L 74.486524 203.432053 
L 74.201989 202.592562 
L 74.022411 201.967258 
L 73.963392 201.753071 
L 73.794021 200.91358 
L 73.688441 200.074088 
L 73.643874 199.234597 
L 73.646617 198.395106 
L 73.677316 197.555615 
L 73.717325 196.716124 
L 73.753036 195.876632 
L 73.777762 195.037141 
L 73.79178 194.19765 
L 73.801065 193.358159 
L 73.814901 192.518667 
L 73.84279 191.679176 
L 73.89133 190.839685 
L 73.962109 190.000194 
L 74.022411 189.423532 
L 74.050018 189.160703 
L 74.146743 188.321211 
L 74.25498 187.48172 
L 74.382491 186.642229 
L 74.546361 185.802738 
L 74.768659 184.963247 
L 74.867353 184.677496 
L 75.047085 184.123755 
L 75.388225 183.284264 
L 75.712296 182.598325 
L 75.779214 182.444773 
L 76.154589 181.605282 
L 76.512241 180.76579 
L 76.557238 180.646725 
L 76.800293 179.926299 
L 77.053095 179.086808 
L 77.299892 178.247317 
L 77.40218 177.925011 
L 77.558127 177.407826 
L 77.858926 176.568334 
L 78.219601 175.728843 
L 78.247123 175.668247 
L 78.56676 174.889352 
L 78.888022 174.049861 
L 79.092065 173.421531 
L 79.151487 173.210369 
L 79.345346 172.370878 
L 79.51044 171.531387 
L 79.658087 170.691896 
L 79.781176 169.852405 
L 79.839418 169.012913 
L 79.728361 168.173422 
L 79.174822 167.333931 
L 79.092065 167.276054 
L 78.247123 166.971777 
L 77.40218 166.901232 
L 76.557238 166.979537 
L 75.712296 167.19389 
L 75.392094 167.333931 
L 74.867353 167.596548 
L 74.029741 168.173422 
L 74.022411 168.178992 
L 73.177468 168.942212 
L 73.105657 169.012913 
L 72.332526 169.777998 
L 72.260088 169.852405 
L 71.487583 170.663497 
L 71.461937 170.691896 
L 70.771016 171.531387 
L 70.642641 171.708589 
L 70.213166 172.370878 
L 69.797698 173.123996 
L 69.755155 173.210369 
L 69.420623 174.049861 
L 69.133286 174.889352 
L 68.952756 175.487581 
L 68.888023 175.728843 
L 68.686884 176.568334 
L 68.487128 177.407826 
L 68.268999 178.247317 
L 68.107813 178.775931 
L 68.015722 179.086808 
L 67.701943 179.926299 
L 67.262871 180.761278 
L 67.260231 180.76579 
L 66.652837 181.605282 
L 66.417929 181.871417 
L 65.870144 182.444773 
L 65.572986 182.746792 
L 65.090704 183.284264 
L 64.728044 183.74126 
L 64.485485 184.123755 
L 64.044626 184.963247 
L 63.883101 185.32288 
L 63.704808 185.802738 
L 63.412963 186.642229 
L 63.120571 187.48172 
L 63.038159 187.716147 
L 62.842561 188.321211 
L 62.567183 189.160703 
L 62.284996 190.000194 
L 62.193216 190.268507 
L 62.002533 190.839685 
L 61.698969 191.679176 
L 61.348274 192.507347 
L 61.343388 192.518667 
L 60.935721 193.358159 
L 60.503331 194.136783 
L 60.470031 194.19765 
L 59.98874 195.037141 
L 59.658389 195.617483 
L 59.523237 195.876632 
L 59.10548 196.716124 
L 58.813446 197.356357 
L 58.729655 197.555615 
L 58.395133 198.395106 
L 58.090418 199.234597 
L 57.968504 199.603177 
L 57.813576 200.074088 
L 57.570517 200.91358 
L 57.367957 201.753071 
L 57.213534 202.592562 
L 57.123561 203.355036 
L 57.114457 203.432053 
L 57.0757 204.271545 
L 57.093844 205.111036 
L 57.123561 205.4648 
L 57.167236 205.950527 
L 57.291648 206.790018 
L 57.459791 207.629509 
L 57.665304 208.469001 
L 57.901374 209.308492 
L 57.968504 209.524135 
L 58.154235 210.147983 
L 58.420584 210.987474 
L 58.699097 211.826965 
L 58.813446 212.154376 
L 58.983474 212.666457 
L 59.275369 213.505948 
L 59.584327 214.345439 
L 59.658389 214.530896 
L 59.910922 215.18493 
L 60.261259 216.024422 
L 60.503331 216.564414 
L 60.640067 216.863913 
L 61.038539 217.703404 
L 61.348274 218.345031 
L 61.449996 218.542895 
L 61.872477 219.382386 
L 62.193216 220.01543 
L 62.306738 220.221878 
L 62.787133 221.061369 
L 63.038159 221.454314 
L 63.351003 221.90086 
L 63.883101 222.559083 
L 64.040481 222.740351 
L 64.728044 223.440485 
L 64.868579 223.579843 
L 65.572986 224.223035 
L 65.786464 224.419334 
L 66.417929 224.97242 
L 66.743163 225.258825 
L 67.262871 225.701391 
L 67.735839 226.098316 
L 68.107813 226.400711 
L 68.781378 226.937807 
L 68.952756 227.070485 
L 69.797698 227.726541 
L 69.861563 227.777299 
L 70.642641 228.391002 
L 70.918365 228.61679 
L 71.487583 229.082366 
L 71.933523 229.456281 
L 72.332526 229.788027 
L 72.95986 230.295772 
L 73.177468 230.465907 
L 74.022411 231.059496 
L 74.153577 231.135263 
L 74.867353 231.526951 
L 75.712296 231.875824 
L 76.070488 231.974755 
L 76.557238 232.108626 
L 77.40218 232.25542 
L 78.247123 232.365272 
L 79.092065 232.499196 
L 79.937008 232.717448 
L 80.183144 232.814246 
L 80.78195 233.050102 
L 81.626893 233.503322 
L 81.861181 233.653737 
L 82.471835 234.032324 
L 83.186386 234.493228 
L 83.316778 234.570168 
L 84.16172 235.007668 
L 84.969872 235.33272 
L 85.006663 235.34547 
L 85.851605 235.555494 
L 86.696548 235.702944 
L 87.54149 235.816494 
L 88.386432 235.916646 
L 89.231375 236.013525 
L 90.076317 236.107676 
L 90.706569 236.172211 
L 90.92126 236.191835 
L 91.766202 236.259574 
L 92.611145 236.321395 
L 93.456087 236.388724 
L 94.30103 236.47577 
L 95.145972 236.591449 
L 95.990915 236.732408 
L 96.835857 236.883027 
L 97.602313 237.011702 
L 97.6808 237.024099 
L 98.525742 237.13609 
L 99.370684 237.230515 
L 100.215627 237.313397 
L 101.060569 237.386845 
L 101.905512 237.448477 
L 102.750454 237.498495 
L 103.595397 237.549111 
L 104.440339 237.626554 
L 105.285282 237.759332 
L 105.677743 237.851193 
z
" clip-path="url(#p7acbf0937a)" style="fill: #005e98; fill-opacity: 0.5"/>
   </g>
   <g id="matplotlib.axis_2">
    <g id="xtick_5">
     <g id="line2d_7">
      <g>
       <use xlink:href="#m02c25cc5a9" x="51.972517" y="256.32" style="fill: #111111; stroke: #111111; stroke-width: 0.8"/>
      </g>
     </g>
     <g id="text_2">
      <!-- 0.0 -->
      <g style="fill: #111111" transform="translate(46.008845 265.518828) scale(0.075 -0.075)">
       <use xlink:href="#DejaVuSans-30"/>
       <use xlink:href="#DejaVuSans-2e" x="63.623047"/>
       <use xlink:href="#DejaVuSans-30" x="95.410156"/>
      </g>
     </g>
    </g>
    <g id="xtick_6">
     <g id="line2d_8">
      <g>
       <use xlink:href="#m02c25cc5a9" x="81.530588" y="256.32" style="fill: #111111; stroke: #111111; stroke-width: 0.8"/>
      </g>
     </g>
     <g id="text_3">
      <!-- 1.5 -->
      <g style="fill: #111111" transform="translate(75.566916 265.518828) scale(0.075 -0.075)">
       <defs>
        <path id="DejaVuSans-35" d="M 691 4666 
L 3169 4666 
L 3169 4134 
L 1269 4134 
L 1269 2991 
Q 1406 3038 1543 3061 
Q 1681 3084 1819 3084 
Q 2600 3084 3056 2656 
Q 3513 2228 3513 1497 
Q 3513 744 3044 326 
Q 2575 -91 1722 -91 
Q 1428 -91 1123 -41 
Q 819 9 494 109 
L 494 744 
Q 775 591 1075 516 
Q 1375 441 1709 441 
Q 2250 441 2565 725 
Q 2881 1009 2881 1497 
Q 2881 1984 2565 2268 
Q 2250 2553 1709 2553 
Q 1456 2553 1204 2497 
Q 953 2441 691 2322 
L 691 4666 
z
" transform="scale(0.015625)"/>
       </defs>
       <use xlink:href="#DejaVuSans-31"/>
       <use xlink:href="#DejaVuSans-2e" x="63.623047"/>
       <use xlink:href="#DejaVuSans-35" x="95.410156"/>
      </g>
     </g>
    </g>
    <g id="xtick_7">
     <g id="line2d_9">
      <g>
       <use xlink:href="#m02c25cc5a9" x="111.088658" y="256.32" style="fill: #111111; stroke: #111111; stroke-width: 0.8"/>
      </g>
     </g>
     <g id="text_4">
      <!-- 3.0 -->
      <g style="fill: #111111" transform="translate(105.124986 265.518828) scale(0.075 -0.075)">
       <use xlink:href="#DejaVuSans-33"/>
       <use xlink:href="#DejaVuSans-2e" x="63.623047"/>
       <use xlink:href="#DejaVuSans-30" x="95.410156"/>
      </g>
     </g>
    </g>
    <g id="xtick_8">
     <g id="line2d_10">
      <g>
       <use xlink:href="#m02c25cc5a9" x="140.646729" y="256.32" style="fill: #111111; stroke: #111111; stroke-width: 0.8"/>
      </g>
     </g>
     <g id="text_5">
      <!-- 4.5 -->
      <g style="fill: #111111" transform="translate(134.683057 265.518828) scale(0.075 -0.075)">
       <use xlink:href="#DejaVuSans-34"/>
       <use xlink:href="#DejaVuSans-2e" x="63.623047"/>
       <use xlink:href="#DejaVuSans-35" x="95.410156"/>
      </g>
     </g>
    </g>
    <g id="text_6">
     <!-- $x$ -->
     <g style="fill: #111111" transform="translate(86.803846 278.297109) scale(0.095 -0.095)">
      <use xlink:href="#DejaVuSans-Oblique-78" transform="translate(0 0.3125)"/>
     </g>
    </g>
   </g>
   <g id="matplotlib.axis_3">
    <g id="ytick_1">
     <g id="line2d_11">
      <defs>
       <path id="m7d3b9ef144" d="M 0 0 
L 3.5 0 
" style="stroke: #111111; stroke-width: 0.8"/>
      </defs>
      <g>
       <use xlink:href="#m7d3b9ef144" x="36" y="225.722744" style="fill: #111111; stroke: #111111; stroke-width: 0.8"/>
      </g>
     </g>
     <g id="text_7">
      <!-- 0 -->
      <g style="fill: #111111" transform="translate(27.728125 228.572158) scale(0.075 -0.075)">
       <use xlink:href="#DejaVuSans-30"/>
      </g>
     </g>
    </g>
    <g id="ytick_2">
     <g id="line2d_12">
      <g>
       <use xlink:href="#m7d3b9ef144" x="36" y="191.471474" style="fill: #111111; stroke: #111111; stroke-width: 0.8"/>
      </g>
     </g>
     <g id="text_8">
      <!-- 2 -->
      <g style="fill: #111111" transform="translate(27.728125 194.320888) scale(0.075 -0.075)">
       <defs>
        <path id="DejaVuSans-32" d="M 1228 531 
L 3431 531 
L 3431 0 
L 469 0 
L 469 531 
Q 828 903 1448 1529 
Q 2069 2156 2228 2338 
Q 2531 2678 2651 2914 
Q 2772 3150 2772 3378 
Q 2772 3750 2511 3984 
Q 2250 4219 1831 4219 
Q 1534 4219 1204 4116 
Q 875 4013 500 3803 
L 500 4441 
Q 881 4594 1212 4672 
Q 1544 4750 1819 4750 
Q 2544 4750 2975 4387 
Q 3406 4025 3406 3419 
Q 3406 3131 3298 2873 
Q 3191 2616 2906 2266 
Q 2828 2175 2409 1742 
Q 1991 1309 1228 531 
z
" transform="scale(0.015625)"/>
       </defs>
       <use xlink:href="#DejaVuSans-32"/>
      </g>
     </g>
    </g>
    <g id="ytick_3">
     <g id="line2d_13">
      <g>
       <use xlink:href="#m7d3b9ef144" x="36" y="157.220204" style="fill: #111111; stroke: #111111; stroke-width: 0.8"/>
      </g>
     </g>
     <g id="text_9">
      <!-- 4 -->
      <g style="fill: #111111" transform="translate(27.728125 160.069618) scale(0.075 -0.075)">
       <use xlink:href="#DejaVuSans-34"/>
      </g>
     </g>
    </g>
    <g id="text_10">
     <!-- $y$ -->
     <g style="fill: #111111" transform="translate(9.805781 205.862308) rotate(-90) scale(0.095 -0.095)">
      <defs>
       <path id="DejaVuSans-Oblique-79" d="M 1588 -325 
Q 1188 -997 936 -1164 
Q 684 -1331 294 -1331 
L -159 -1331 
L -63 -850 
L 269 -850 
Q 509 -850 678 -719 
Q 847 -588 1056 -206 
L 1234 128 
L 459 3500 
L 1069 3500 
L 1650 819 
L 3256 3500 
L 3859 3500 
L 1588 -325 
z
" transform="scale(0.015625)"/>
      </defs>
      <use xlink:href="#DejaVuSans-Oblique-79" transform="translate(0 0.3125)"/>
     </g>
    </g>
   </g>
   <g id="QuadContourSet_2">
    <path d="M 106.975167 247.227129 
L 107.820109 247.343796 
L 108.665051 247.368761 
L 109.509994 247.298654 
L 110.354936 247.148897 
L 110.630784 247.085597 
L 111.199879 246.967616 
L 112.044821 246.798765 
L 112.889764 246.680954 
L 113.734706 246.639153 
L 114.579649 246.666455 
L 115.424591 246.732148 
L 116.269534 246.801453 
L 117.114476 246.850403 
L 117.959419 246.869621 
L 118.804361 246.860817 
L 119.649303 246.83086 
L 120.494246 246.785851 
L 121.339188 246.726899 
L 122.184131 246.649385 
L 123.029073 246.545485 
L 123.874016 246.407273 
L 124.637284 246.246105 
L 124.718958 246.229861 
L 125.563901 246.023727 
L 126.408843 245.778868 
L 127.253786 245.499993 
L 127.519658 245.406614 
L 128.098728 245.204799 
L 128.943671 244.891877 
L 129.751456 244.567123 
L 129.788613 244.552334 
L 130.633555 244.192625 
L 131.478498 243.77683 
L 131.566963 243.727632 
L 132.32344 243.305045 
L 132.951914 242.888141 
L 133.168383 242.739377 
L 134.013325 242.064122 
L 134.030976 242.048649 
L 134.858268 241.2462 
L 134.893887 241.209158 
L 135.595553 240.369667 
L 135.70321 240.211246 
L 136.160334 239.530176 
L 136.548153 238.753916 
L 136.580528 238.690684 
L 136.901222 237.851193 
L 137.107733 237.011702 
L 137.221953 236.172211 
L 137.26022 235.33272 
L 137.231603 234.493228 
L 137.135896 233.653737 
L 136.961748 232.814246 
L 136.686413 231.974755 
L 136.548153 231.674224 
L 136.307341 231.135263 
L 135.790357 230.295772 
L 135.70321 230.182131 
L 135.124728 229.456281 
L 134.858268 229.179005 
L 134.249719 228.61679 
L 134.013325 228.424722 
L 133.168383 227.860307 
L 133.012665 227.777299 
L 132.32344 227.433359 
L 131.478498 227.094923 
L 131.06424 226.937807 
L 130.633555 226.77428 
L 129.788613 226.411218 
L 129.174582 226.098316 
L 128.943671 225.976903 
L 128.098728 225.473427 
L 127.740671 225.258825 
L 127.253786 224.965564 
L 126.408843 224.525739 
L 126.148026 224.419334 
L 125.563901 224.182436 
L 124.718958 223.939247 
L 123.874016 223.769541 
L 123.029073 223.63947 
L 122.599028 223.579843 
L 122.184131 223.519775 
L 121.339188 223.394279 
L 120.494246 223.256746 
L 119.649303 223.100987 
L 118.804361 222.927264 
L 117.959419 222.745196 
L 117.936285 222.740351 
L 117.114476 222.552912 
L 116.269534 222.384238 
L 115.424591 222.244795 
L 114.579649 222.127897 
L 113.734706 222.018583 
L 112.905634 221.90086 
L 112.889764 221.89824 
L 112.044821 221.731605 
L 111.199879 221.522031 
L 110.354936 221.268784 
L 109.74461 221.061369 
L 109.509994 220.973082 
L 108.665051 220.630805 
L 107.820109 220.272071 
L 107.710513 220.221878 
L 106.975167 219.851507 
L 106.130224 219.400959 
L 106.096451 219.382386 
L 105.285282 218.898806 
L 104.63827 218.542895 
L 104.440339 218.428892 
L 103.595397 218.02038 
L 102.750454 217.707025 
L 102.738958 217.703404 
L 101.905512 217.441725 
L 101.060569 217.190162 
L 100.215627 216.913743 
L 100.087974 216.863913 
L 99.370684 216.575617 
L 98.525742 216.182374 
L 98.227679 216.024422 
L 97.6808 215.714679 
L 96.852137 215.18493 
L 96.835857 215.173662 
L 95.990915 214.516275 
L 95.791857 214.345439 
L 95.145972 213.755882 
L 94.887649 213.505948 
L 94.30103 212.91365 
L 94.060492 212.666457 
L 93.456087 212.018928 
L 93.276014 211.826965 
L 92.611145 211.073127 
L 92.534965 210.987474 
L 91.846379 210.147983 
L 91.766202 210.04333 
L 91.201174 209.308492 
L 90.92126 208.929222 
L 90.575483 208.469001 
L 90.076317 207.804722 
L 89.941894 207.629509 
L 89.288586 206.790018 
L 89.231375 206.717188 
L 88.640557 205.950527 
L 88.386432 205.60901 
L 88.036832 205.111036 
L 87.54149 204.33783 
L 87.502039 204.271545 
L 87.05425 203.432053 
L 86.696548 202.666331 
L 86.663934 202.592562 
L 86.328223 201.753071 
L 86.016546 200.91358 
L 85.851605 200.448124 
L 85.719959 200.074088 
L 85.438249 199.234597 
L 85.172185 198.395106 
L 85.006663 197.807053 
L 84.937344 197.555615 
L 84.752428 196.716124 
L 84.61353 195.876632 
L 84.517573 195.037141 
L 84.459189 194.19765 
L 84.435194 193.358159 
L 84.445888 192.518667 
L 84.492275 191.679176 
L 84.571965 190.839685 
L 84.678019 190.000194 
L 84.801895 189.160703 
L 84.937314 188.321211 
L 85.006663 187.927136 
L 85.089675 187.48172 
L 85.257092 186.642229 
L 85.43436 185.802738 
L 85.623079 184.963247 
L 85.822159 184.123755 
L 85.851605 184.008436 
L 86.036794 183.284264 
L 86.259083 182.444773 
L 86.488102 181.605282 
L 86.696548 180.875553 
L 86.72924 180.76579 
L 87.004572 179.926299 
L 87.300769 179.086808 
L 87.54149 178.448325 
L 87.623257 178.247317 
L 87.979817 177.407826 
L 88.329332 176.568334 
L 88.386432 176.426221 
L 88.675905 175.728843 
L 88.9882 174.889352 
L 89.231375 174.147547 
L 89.263502 174.049861 
L 89.514132 173.210369 
L 89.740461 172.370878 
L 89.951906 171.531387 
L 90.076317 171.015166 
L 90.156161 170.691896 
L 90.352229 169.852405 
L 90.524263 169.012913 
L 90.660447 168.173422 
L 90.750194 167.333931 
L 90.785835 166.49444 
L 90.762334 165.654949 
L 90.675804 164.815457 
L 90.52181 163.975966 
L 90.293965 163.136475 
L 90.076317 162.536259 
L 89.98413 162.296984 
L 89.582486 161.457492 
L 89.231375 160.864018 
L 89.077444 160.618001 
L 88.471824 159.77851 
L 88.386432 159.671871 
L 87.786776 158.939019 
L 87.54149 158.663774 
L 87.022638 158.099528 
L 86.696548 157.773226 
L 86.136157 157.260036 
L 85.851605 157.021916 
L 85.006663 156.424996 
L 84.99917 156.420545 
L 84.16172 155.956077 
L 83.316778 155.609902 
L 83.222111 155.581054 
L 82.471835 155.35475 
L 81.626893 155.192221 
L 80.78195 155.10541 
L 79.937008 155.073662 
L 79.092065 155.082471 
L 78.247123 155.129819 
L 77.40218 155.225747 
L 76.557238 155.386644 
L 75.870867 155.581054 
L 75.712296 155.625395 
L 74.867353 155.934807 
L 74.022411 156.328189 
L 73.849962 156.420545 
L 73.177468 156.782086 
L 72.382911 157.260036 
L 72.332526 157.290701 
L 71.487583 157.821414 
L 71.056396 158.099528 
L 70.642641 158.369002 
L 69.797698 158.929166 
L 69.783148 158.939019 
L 68.952756 159.508896 
L 68.589542 159.77851 
L 68.107813 160.142313 
L 67.541333 160.618001 
L 67.262871 160.858614 
L 66.647026 161.457492 
L 66.417929 161.693001 
L 65.890249 162.296984 
L 65.572986 162.692886 
L 65.241421 163.136475 
L 64.728044 163.889434 
L 64.66977 163.975966 
L 64.123758 164.815457 
L 63.883101 165.19198 
L 63.56859 165.654949 
L 63.038159 166.418706 
L 62.981005 166.49444 
L 62.329881 167.333931 
L 62.193216 167.507745 
L 61.643172 168.173422 
L 61.348274 168.536362 
L 60.956954 169.012913 
L 60.503331 169.591483 
L 60.29999 169.852405 
L 59.692078 170.691896 
L 59.658389 170.742147 
L 59.132876 171.531387 
L 58.813446 172.072488 
L 58.634623 172.370878 
L 58.184266 173.210369 
L 57.968504 173.652776 
L 57.767407 174.049861 
L 57.359865 174.889352 
L 57.123561 175.36857 
L 56.937071 175.728843 
L 56.467426 176.568334 
L 56.278619 176.871579 
L 55.930907 177.407826 
L 55.433677 178.10743 
L 55.332044 178.247317 
L 54.688496 179.086808 
L 54.588734 179.217603 
L 54.051725 179.926299 
L 53.743792 180.370492 
L 53.473719 180.76579 
L 52.982285 181.605282 
L 52.898849 181.776706 
L 52.573881 182.444773 
L 52.2442 183.284264 
L 52.053907 183.863787 
L 51.966318 184.123755 
L 51.711188 184.963247 
L 51.463636 185.802738 
L 51.208964 186.624963 
L 51.203377 186.642229 
L 50.906697 187.48172 
L 50.586529 188.321211 
L 50.364022 188.878765 
L 50.248129 189.160703 
L 49.904872 190.000194 
L 49.582208 190.839685 
L 49.519079 191.02139 
L 49.284496 191.679176 
L 49.022145 192.518667 
L 48.797736 193.358159 
L 48.674137 193.906261 
L 48.606195 194.19765 
L 48.440128 195.037141 
L 48.296707 195.876632 
L 48.169768 196.716124 
L 48.054692 197.555615 
L 47.948149 198.395106 
L 47.846904 199.234597 
L 47.829194 199.384178 
L 47.739012 200.074088 
L 47.626011 200.91358 
L 47.510081 201.753071 
L 47.397074 202.592562 
L 47.295746 203.432053 
L 47.212599 204.271545 
L 47.147958 205.111036 
L 47.096671 205.950527 
L 47.053129 206.790018 
L 47.017123 207.629509 
L 46.997043 208.469001 
L 47.00908 209.308492 
L 47.073241 210.147983 
L 47.207698 210.987474 
L 47.422906 211.826965 
L 47.716871 212.666457 
L 47.829194 212.937708 
L 48.064761 213.505948 
L 48.437786 214.345439 
L 48.674137 214.885677 
L 48.797662 215.18493 
L 49.113861 216.024422 
L 49.397678 216.863913 
L 49.519079 217.259855 
L 49.645778 217.703404 
L 49.879138 218.542895 
L 50.126404 219.382386 
L 50.364022 220.100085 
L 50.402738 220.221878 
L 50.704986 221.061369 
L 51.058458 221.90086 
L 51.208964 222.217487 
L 51.447665 222.740351 
L 51.878549 223.579843 
L 52.053907 223.889571 
L 52.355071 224.419334 
L 52.897962 225.258825 
L 52.898849 225.260082 
L 53.518036 226.098316 
L 53.743792 226.370884 
L 54.229145 226.937807 
L 54.588734 227.323492 
L 55.012008 227.777299 
L 55.433677 228.208373 
L 55.821115 228.61679 
L 56.278619 229.094322 
L 56.609072 229.456281 
L 57.123561 230.027694 
L 57.355351 230.295772 
L 57.968504 231.011344 
L 58.074782 231.135263 
L 58.809442 231.974755 
L 58.813446 231.979193 
L 59.634702 232.814246 
L 59.658389 232.836991 
L 60.503331 233.537433 
L 60.67489 233.653737 
L 61.348274 234.096155 
L 62.09574 234.493228 
L 62.193216 234.545182 
L 63.038159 234.951562 
L 63.883101 235.33272 
L 63.883101 235.33272 
L 64.728044 235.757625 
L 65.497628 236.172211 
L 65.572986 236.214915 
L 66.417929 236.743891 
L 66.819566 237.011702 
L 67.262871 237.315706 
L 68.019427 237.851193 
L 68.107813 237.915216 
L 68.952756 238.539798 
L 69.163122 238.690684 
L 69.797698 239.147599 
L 70.393379 239.530176 
L 70.642641 239.686362 
L 71.487583 240.136516 
L 72.018262 240.369667 
L 72.332526 240.503126 
L 73.177468 240.830993 
L 74.022411 241.14692 
L 74.174118 241.209158 
L 74.867353 241.502539 
L 75.712296 241.88646 
L 76.047277 242.048649 
L 76.557238 242.311325 
L 77.40218 242.743447 
L 77.698506 242.888141 
L 78.247123 243.171592 
L 79.092065 243.561317 
L 79.507312 243.727632 
L 79.937008 243.91184 
L 80.78195 244.212457 
L 81.626893 244.447282 
L 82.195378 244.567123 
L 82.471835 244.630031 
L 83.316778 244.780313 
L 84.16172 244.915645 
L 85.006663 245.060191 
L 85.851605 245.223047 
L 86.696548 245.397063 
L 86.744424 245.406614 
L 87.54149 245.574812 
L 88.386432 245.735353 
L 89.231375 245.877852 
L 90.076317 246.011316 
L 90.92126 246.147843 
L 91.478198 246.246105 
L 91.766202 246.298154 
L 92.611145 246.465527 
L 93.456087 246.633987 
L 94.30103 246.778544 
L 95.145972 246.868015 
L 95.990915 246.877533 
L 96.835857 246.80067 
L 97.6808 246.654826 
L 98.525742 246.478272 
L 99.370684 246.319466 
L 99.991601 246.246105 
L 100.215627 246.222754 
L 101.060569 246.203714 
L 101.868997 246.246105 
L 101.905512 246.248194 
L 102.750454 246.350732 
L 103.595397 246.490854 
L 104.440339 246.660658 
L 105.285282 246.85188 
L 106.130224 247.045994 
L 106.329443 247.085597 
L 106.975167 247.227129 
z
" clip-path="url(#p7acbf0937a)" style="fill: none; stroke: #1a5978; stroke-opacity: 0.45; stroke-width: 1.2"/>
    <path d="M 106.130224 237.942393 
L 106.975167 238.146807 
L 107.820109 238.343466 
L 108.665051 238.491149 
L 109.509994 238.567846 
L 110.354936 238.575408 
L 111.199879 238.531313 
L 112.044821 238.454136 
L 112.889764 238.348987 
L 113.734706 238.201652 
L 114.579649 237.988958 
L 114.980756 237.851193 
L 115.424591 237.652903 
L 116.269534 237.209975 
L 116.627594 237.011702 
L 117.114476 236.661804 
L 117.831506 236.172211 
L 117.959419 236.045773 
L 118.720185 235.33272 
L 118.804361 235.158028 
L 119.127951 234.493228 
L 118.996293 233.653737 
L 118.804361 233.38837 
L 118.424145 232.814246 
L 117.959419 232.399963 
L 117.475742 231.974755 
L 117.114476 231.746423 
L 116.269534 231.279762 
L 115.929001 231.135263 
L 115.424591 230.973749 
L 114.579649 230.805657 
L 113.734706 230.728829 
L 112.889764 230.714439 
L 112.044821 230.729712 
L 111.199879 230.751434 
L 110.354936 230.769436 
L 109.509994 230.781386 
L 108.665051 230.784175 
L 107.820109 230.766375 
L 106.975167 230.706949 
L 106.130224 230.584853 
L 105.285282 230.39325 
L 104.95156 230.295772 
L 104.440339 230.154994 
L 103.595397 229.872416 
L 102.750454 229.506274 
L 102.660392 229.456281 
L 101.905512 229.050971 
L 101.270308 228.61679 
L 101.060569 228.478162 
L 100.215627 227.858007 
L 100.106 227.777299 
L 99.370684 227.28442 
L 98.803374 226.937807 
L 98.525742 226.784901 
L 97.6808 226.372264 
L 97.076104 226.098316 
L 96.835857 225.997997 
L 95.990915 225.64548 
L 95.145972 225.274175 
L 95.112712 225.258825 
L 94.30103 224.897447 
L 93.456087 224.497904 
L 93.292422 224.419334 
L 92.611145 224.078535 
L 91.766202 223.6308 
L 91.668232 223.579843 
L 90.92126 223.148752 
L 90.242064 222.740351 
L 90.076317 222.629503 
L 89.231375 222.048372 
L 89.038678 221.90086 
L 88.386432 221.370503 
L 88.059246 221.061369 
L 87.54149 220.587495 
L 87.183665 220.221878 
L 86.696548 219.77527 
L 86.288844 219.382386 
L 85.851605 219.00612 
L 85.320678 218.542895 
L 85.006663 218.282996 
L 84.315234 217.703404 
L 84.16172 217.570916 
L 83.358698 216.863913 
L 83.316778 216.823668 
L 82.491866 216.024422 
L 82.471835 216.003152 
L 81.698328 215.18493 
L 81.626893 215.104471 
L 80.969646 214.345439 
L 80.78195 214.11792 
L 80.324496 213.505948 
L 79.937008 212.959171 
L 79.758045 212.666457 
L 79.250576 211.826965 
L 79.092065 211.566754 
L 78.767468 210.987474 
L 78.263393 210.147983 
L 78.247123 210.12244 
L 77.724827 209.308492 
L 77.40218 208.836545 
L 77.144493 208.469001 
L 76.557238 207.629509 
L 76.557238 207.629509 
L 76.023019 206.790018 
L 75.712296 206.244187 
L 75.554186 205.950527 
L 75.156138 205.111036 
L 74.867353 204.440543 
L 74.797588 204.271545 
L 74.486524 203.432053 
L 74.201989 202.592562 
L 74.022411 201.967258 
L 73.963392 201.753071 
L 73.794021 200.91358 
L 73.688441 200.074088 
L 73.643874 199.234597 
L 73.646617 198.395106 
L 73.677316 197.555615 
L 73.717325 196.716124 
L 73.753036 195.876632 
L 73.777762 195.037141 
L 73.79178 194.19765 
L 73.801065 193.358159 
L 73.814901 192.518667 
L 73.84279 191.679176 
L 73.89133 190.839685 
L 73.962109 190.000194 
L 74.022411 189.423532 
L 74.050018 189.160703 
L 74.146743 188.321211 
L 74.25498 187.48172 
L 74.382491 186.642229 
L 74.546361 185.802738 
L 74.768659 184.963247 
L 74.867353 184.677496 
L 75.047085 184.123755 
L 75.388225 183.284264 
L 75.712296 182.598325 
L 75.779214 182.444773 
L 76.154589 181.605282 
L 76.512241 180.76579 
L 76.557238 180.646725 
L 76.800293 179.926299 
L 77.053095 179.086808 
L 77.299892 178.247317 
L 77.40218 177.925011 
L 77.558127 177.407826 
L 77.858926 176.568334 
L 78.219601 175.728843 
L 78.247123 175.668247 
L 78.56676 174.889352 
L 78.888022 174.049861 
L 79.092065 173.421531 
L 79.151487 173.210369 
L 79.345346 172.370878 
L 79.51044 171.531387 
L 79.658087 170.691896 
L 79.781176 169.852405 
L 79.839418 169.012913 
L 79.728361 168.173422 
L 79.174822 167.333931 
L 79.092065 167.276054 
L 78.247123 166.971777 
L 77.40218 166.901232 
L 76.557238 166.979537 
L 75.712296 167.19389 
L 75.392094 167.333931 
L 74.867353 167.596548 
L 74.029741 168.173422 
L 74.022411 168.178992 
L 73.177468 168.942212 
L 73.105657 169.012913 
L 72.332526 169.777998 
L 72.260088 169.852405 
L 71.487583 170.663497 
L 71.461937 170.691896 
L 70.771016 171.531387 
L 70.642641 171.708589 
L 70.213166 172.370878 
L 69.797698 173.123996 
L 69.755155 173.210369 
L 69.420623 174.049861 
L 69.133286 174.889352 
L 68.952756 175.487581 
L 68.888023 175.728843 
L 68.686884 176.568334 
L 68.487128 177.407826 
L 68.268999 178.247317 
L 68.107813 178.775931 
L 68.015722 179.086808 
L 67.701943 179.926299 
L 67.262871 180.761278 
L 67.260231 180.76579 
L 66.652837 181.605282 
L 66.417929 181.871417 
L 65.870144 182.444773 
L 65.572986 182.746792 
L 65.090704 183.284264 
L 64.728044 183.74126 
L 64.485485 184.123755 
L 64.044626 184.963247 
L 63.883101 185.32288 
L 63.704808 185.802738 
L 63.412963 186.642229 
L 63.120571 187.48172 
L 63.038159 187.716147 
L 62.842561 188.321211 
L 62.567183 189.160703 
L 62.284996 190.000194 
L 62.193216 190.268507 
L 62.002533 190.839685 
L 61.698969 191.679176 
L 61.348274 192.507347 
L 61.343388 192.518667 
L 60.935721 193.358159 
L 60.503331 194.136783 
L 60.470031 194.19765 
L 59.98874 195.037141 
L 59.658389 195.617483 
L 59.523237 195.876632 
L 59.10548 196.716124 
L 58.813446 197.356357 
L 58.729655 197.555615 
L 58.395133 198.395106 
L 58.090418 199.234597 
L 57.968504 199.603177 
L 57.813576 200.074088 
L 57.570517 200.91358 
L 57.367957 201.753071 
L 57.213534 202.592562 
L 57.123561 203.355036 
L 57.114457 203.432053 
L 57.0757 204.271545 
L 57.093844 205.111036 
L 57.123561 205.4648 
L 57.167236 205.950527 
L 57.291648 206.790018 
L 57.459791 207.629509 
L 57.665304 208.469001 
L 57.901374 209.308492 
L 57.968504 209.524135 
L 58.154235 210.147983 
L 58.420584 210.987474 
L 58.699097 211.826965 
L 58.813446 212.154376 
L 58.983474 212.666457 
L 59.275369 213.505948 
L 59.584327 214.345439 
L 59.658389 214.530896 
L 59.910922 215.18493 
L 60.261259 216.024422 
L 60.503331 216.564414 
L 60.640067 216.863913 
L 61.038539 217.703404 
L 61.348274 218.345031 
L 61.449996 218.542895 
L 61.872477 219.382386 
L 62.193216 220.01543 
L 62.306738 220.221878 
L 62.787133 221.061369 
L 63.038159 221.454314 
L 63.351003 221.90086 
L 63.883101 222.559083 
L 64.040481 222.740351 
L 64.728044 223.440485 
L 64.868579 223.579843 
L 65.572986 224.223035 
L 65.786464 224.419334 
L 66.417929 224.97242 
L 66.743163 225.258825 
L 67.262871 225.701391 
L 67.735839 226.098316 
L 68.107813 226.400711 
L 68.781378 226.937807 
L 68.952756 227.070485 
L 69.797698 227.726541 
L 69.861563 227.777299 
L 70.642641 228.391002 
L 70.918365 228.61679 
L 71.487583 229.082366 
L 71.933523 229.456281 
L 72.332526 229.788027 
L 72.95986 230.295772 
L 73.177468 230.465907 
L 74.022411 231.059496 
L 74.153577 231.135263 
L 74.867353 231.526951 
L 75.712296 231.875824 
L 76.070488 231.974755 
L 76.557238 232.108626 
L 77.40218 232.25542 
L 78.247123 232.365272 
L 79.092065 232.499196 
L 79.937008 232.717448 
L 80.183144 232.814246 
L 80.78195 233.050102 
L 81.626893 233.503322 
L 81.861181 233.653737 
L 82.471835 234.032324 
L 83.186386 234.493228 
L 83.316778 234.570168 
L 84.16172 235.007668 
L 84.969872 235.33272 
L 85.006663 235.34547 
L 85.851605 235.555494 
L 86.696548 235.702944 
L 87.54149 235.816494 
L 88.386432 235.916646 
L 89.231375 236.013525 
L 90.076317 236.107676 
L 90.706569 236.172211 
L 90.92126 236.191835 
L 91.766202 236.259574 
L 92.611145 236.321395 
L 93.456087 236.388724 
L 94.30103 236.47577 
L 95.145972 236.591449 
L 95.990915 236.732408 
L 96.835857 236.883027 
L 97.602313 237.011702 
L 97.6808 237.024099 
L 98.525742 237.13609 
L 99.370684 237.230515 
L 100.215627 237.313397 
L 101.060569 237.386845 
L 101.905512 237.448477 
L 102.750454 237.498495 
L 103.595397 237.549111 
L 104.440339 237.626554 
L 105.285282 237.759332 
L 105.677743 237.851193 
L 106.130224 237.942393 
z
" clip-path="url(#p7acbf0937a)" style="fill: none; stroke: #006eb2; stroke-opacity: 0.95; stroke-width: 1.2"/>
   </g>
   <g id="patch_5">
    <path d="M 36 256.32 
L 36 149.704615 
" style="fill: none; stroke: #cccccc; stroke-linejoin: miter; stroke-linecap: square"/>
   </g>
   <g id="patch_6">
    <path d="M 36 256.32 
L 143.307692 256.32 
" style="fill: none; stroke: #cccccc; stroke-linejoin: miter; stroke-linecap: square"/>
   </g>
  </g>
  <g id="axes_4">
   <g id="patch_7">
    <path d="M 151.892308 256.32 
L 259.2 256.32 
L 259.2 149.704615 
L 151.892308 149.704615 
z
" style="fill: #ffffff"/>
   </g>
   <g id="PolyCollection_2">
    <defs>
     <path id="me4428262ee" d="M 173.860812 -31.68 
L 173.860812 -129.435492 
L 174.705754 -131.331109 
L 175.550697 -132.58445 
L 176.395639 -133.218462 
L 177.240581 -133.216271 
L 178.085524 -132.616044 
L 178.930466 -131.559473 
L 179.775409 -130.216351 
L 180.620351 -128.667493 
L 181.465294 -126.887974 
L 182.310236 -124.847191 
L 183.155179 -122.598777 
L 184.000121 -120.258138 
L 184.845064 -117.90838 
L 185.690006 -115.548473 
L 186.534949 -113.133156 
L 187.379891 -110.654426 
L 188.224833 -108.190888 
L 189.069776 -105.88979 
L 189.914718 -103.891395 
L 190.759661 -102.241926 
L 191.604603 -100.862169 
L 192.449546 -99.60579 
L 193.294488 -98.366492 
L 194.139431 -97.14521 
L 194.984373 -96.023443 
L 195.829316 -95.070503 
L 196.674258 -94.267148 
L 197.5192 -93.509177 
L 198.364143 -92.681309 
L 199.209085 -91.733404 
L 200.054028 -90.696527 
L 200.89897 -89.634462 
L 201.743913 -88.582642 
L 202.588855 -87.531357 
L 203.433798 -86.46477 
L 204.27874 -85.410192 
L 205.123683 -84.439559 
L 205.968625 -83.612233 
L 206.813568 -82.910793 
L 207.65851 -82.236151 
L 208.503452 -81.472909 
L 209.348395 -80.572096 
L 210.193337 -79.588976 
L 211.03828 -78.650828 
L 211.883222 -77.879723 
L 212.728165 -77.322313 
L 213.573107 -76.93175 
L 214.41805 -76.61 
L 215.262992 -76.274075 
L 216.107935 -75.89192 
L 216.952877 -75.464101 
L 217.79782 -74.984387 
L 218.642762 -74.434327 
L 219.487704 -73.820129 
L 220.332647 -73.201079 
L 221.177589 -72.665248 
L 222.022532 -72.274153 
L 222.867474 -72.034553 
L 223.712417 -71.915602 
L 224.557359 -71.87393 
L 225.402302 -71.851781 
L 226.247244 -71.764413 
L 227.092187 -71.519489 
L 227.092187 -31.68 
L 227.092187 -31.68 
L 226.247244 -31.68 
L 225.402302 -31.68 
L 224.557359 -31.68 
L 223.712417 -31.68 
L 222.867474 -31.68 
L 222.022532 -31.68 
L 221.177589 -31.68 
L 220.332647 -31.68 
L 219.487704 -31.68 
L 218.642762 -31.68 
L 217.79782 -31.68 
L 216.952877 -31.68 
L 216.107935 -31.68 
L 215.262992 -31.68 
L 214.41805 -31.68 
L 213.573107 -31.68 
L 212.728165 -31.68 
L 211.883222 -31.68 
L 211.03828 -31.68 
L 210.193337 -31.68 
L 209.348395 -31.68 
L 208.503452 -31.68 
L 207.65851 -31.68 
L 206.813568 -31.68 
L 205.968625 -31.68 
L 205.123683 -31.68 
L 204.27874 -31.68 
L 203.433798 -31.68 
L 202.588855 -31.68 
L 201.743913 -31.68 
L 200.89897 -31.68 
L 200.054028 -31.68 
L 199.209085 -31.68 
L 198.364143 -31.68 
L 197.5192 -31.68 
L 196.674258 -31.68 
L 195.829316 -31.68 
L 194.984373 -31.68 
L 194.139431 -31.68 
L 193.294488 -31.68 
L 192.449546 -31.68 
L 191.604603 -31.68 
L 190.759661 -31.68 
L 189.914718 -31.68 
L 189.069776 -31.68 
L 188.224833 -31.68 
L 187.379891 -31.68 
L 186.534949 -31.68 
L 185.690006 -31.68 
L 184.845064 -31.68 
L 184.000121 -31.68 
L 183.155179 -31.68 
L 182.310236 -31.68 
L 181.465294 -31.68 
L 180.620351 -31.68 
L 179.775409 -31.68 
L 178.930466 -31.68 
L 178.085524 -31.68 
L 177.240581 -31.68 
L 176.395639 -31.68 
L 175.550697 -31.68 
L 174.705754 -31.68 
L 173.860812 -31.68 
z
"/>
    </defs>
    <g clip-path="url(#p93c39090ba)">
     <use xlink:href="#me4428262ee" x="0" y="288" style="fill: #0072b2; fill-opacity: 0.28"/>
    </g>
   </g>
   <g id="matplotlib.axis_4">
    <g id="xtick_9">
     <g id="line2d_14">
      <g>
       <use xlink:href="#m02c25cc5a9" x="182.688247" y="256.32" style="fill: #111111; stroke: #111111; stroke-width: 0.8"/>
      </g>
     </g>
     <g id="text_11">
      <!-- 0 -->
      <g style="fill: #111111" transform="translate(180.30231 265.518828) scale(0.075 -0.075)">
       <use xlink:href="#DejaVuSans-30"/>
      </g>
     </g>
    </g>
    <g id="xtick_10">
     <g id="line2d_15">
      <g>
       <use xlink:href="#m02c25cc5a9" x="217.161928" y="256.32" style="fill: #111111; stroke: #111111; stroke-width: 0.8"/>
      </g>
     </g>
     <g id="text_12">
      <!-- 2 -->
      <g style="fill: #111111" transform="translate(214.77599 265.518828) scale(0.075 -0.075)">
       <use xlink:href="#DejaVuSans-32"/>
      </g>
     </g>
    </g>
    <g id="xtick_11">
     <g id="line2d_16">
      <g>
       <use xlink:href="#m02c25cc5a9" x="251.635609" y="256.32" style="fill: #111111; stroke: #111111; stroke-width: 0.8"/>
      </g>
     </g>
     <g id="text_13">
      <!-- 4 -->
      <g style="fill: #111111" transform="translate(249.249671 265.518828) scale(0.075 -0.075)">
       <use xlink:href="#DejaVuSans-34"/>
      </g>
     </g>
    </g>
    <g id="text_14">
     <!-- $y$ -->
     <g style="fill: #111111" transform="translate(202.696154 278.277812) scale(0.095 -0.095)">
      <use xlink:href="#DejaVuSans-Oblique-79" transform="translate(0 0.3125)"/>
     </g>
    </g>
   </g>
   <g id="line2d_17">
    <path d="M 151.892308 254.160247 
L 152.73725 253.527326 
L 153.582193 252.719531 
L 154.427135 251.720468 
L 156.11702 249.169063 
L 156.961962 247.601785 
L 157.806905 245.762267 
L 158.651847 243.539253 
L 159.49679 240.822107 
L 160.341732 237.551301 
L 162.031617 229.46825 
L 163.721502 219.871632 
L 165.411387 209.250525 
L 167.946214 191.556802 
L 170.481042 173.806054 
L 171.325984 168.834612 
L 172.170927 164.605093 
L 173.015869 161.184542 
L 173.860812 158.564508 
L 174.705754 156.668891 
L 175.550697 155.41555 
L 176.395639 154.781538 
L 177.240581 154.783729 
L 178.085524 155.383956 
L 178.930466 156.440527 
L 180.620351 159.332507 
L 181.465294 161.112026 
L 183.155179 165.401223 
L 187.379891 177.345574 
L 189.069776 182.11021 
L 189.914718 184.108605 
L 190.759661 185.758074 
L 192.449546 188.39421 
L 194.984373 191.976557 
L 196.674258 193.732852 
L 198.364143 195.318691 
L 200.054028 197.303473 
L 205.123683 203.560441 
L 206.813568 205.089207 
L 208.503452 206.527091 
L 211.883222 210.120277 
L 212.728165 210.677687 
L 214.41805 211.39 
L 216.107935 212.10808 
L 217.79782 213.015613 
L 219.487704 214.179871 
L 221.177589 215.334752 
L 222.022532 215.725847 
L 222.867474 215.965447 
L 224.557359 216.12607 
L 226.247244 216.235587 
L 227.092187 216.480511 
L 227.937129 216.926461 
L 230.471956 218.631806 
L 231.316899 218.917648 
L 232.161841 218.993333 
L 234.696669 218.873318 
L 235.541611 219.118653 
L 236.386554 219.592617 
L 241.456208 223.3926 
L 242.301151 224.534078 
L 243.146093 225.991977 
L 247.370806 234.378616 
L 249.06069 237.310657 
L 250.750575 240.832677 
L 253.285403 246.43293 
L 254.975288 249.453721 
L 256.665173 251.751733 
L 258.355058 253.432229 
L 259.2 254.089236 
L 259.2 254.089236 
" clip-path="url(#p93c39090ba)" style="fill: none; stroke: #0072b2; stroke-opacity: 0.92; stroke-width: 1.8; stroke-linecap: square"/>
   </g>
   <g id="line2d_18">
    <path d="M 192.812202 256.32 
L 192.812202 188.926128 
" clip-path="url(#p93c39090ba)" style="fill: none; stroke-dasharray: 4.44,1.92; stroke-dashoffset: 0; stroke: #0072b2; stroke-opacity: 0.98; stroke-width: 1.2"/>
   </g>
   <g id="patch_8">
    <path d="M 151.892308 256.32 
L 259.2 256.32 
" style="fill: none; stroke: #cccccc; stroke-linejoin: miter; stroke-linecap: square"/>
   </g>
   <g id="text_15">
    <!-- $y$ = $0.6^{+2.0}_{-1.1}$ -->
    <g style="fill: #111111" transform="translate(182.596154 144.704615) scale(0.085 -0.085)">
     <defs>
      <path id="DejaVuSans-36" d="M 2113 2584 
Q 1688 2584 1439 2293 
Q 1191 2003 1191 1497 
Q 1191 994 1439 701 
Q 1688 409 2113 409 
Q 2538 409 2786 701 
Q 3034 994 3034 1497 
Q 3034 2003 2786 2293 
Q 2538 2584 2113 2584 
z
M 3366 4563 
L 3366 3988 
Q 3128 4100 2886 4159 
Q 2644 4219 2406 4219 
Q 1781 4219 1451 3797 
Q 1122 3375 1075 2522 
Q 1259 2794 1537 2939 
Q 1816 3084 2150 3084 
Q 2853 3084 3261 2657 
Q 3669 2231 3669 1497 
Q 3669 778 3244 343 
Q 2819 -91 2113 -91 
Q 1303 -91 875 529 
Q 447 1150 447 2328 
Q 447 3434 972 4092 
Q 1497 4750 2381 4750 
Q 2619 4750 2861 4703 
Q 3103 4656 3366 4563 
z
" transform="scale(0.015625)"/>
     </defs>
     <use xlink:href="#DejaVuSans-Oblique-79" transform="translate(0 0.765625)"/>
     <use xlink:href="#DejaVuSans-20" transform="translate(59.179688 0.765625)"/>
     <use xlink:href="#DejaVuSans-3d" transform="translate(90.966797 0.765625)"/>
     <use xlink:href="#DejaVuSans-20" transform="translate(174.755859 0.765625)"/>
     <use xlink:href="#DejaVuSans-30" transform="translate(206.542969 0.765625)"/>
     <use xlink:href="#DejaVuSans-2e" transform="translate(270.166016 0.765625)"/>
     <use xlink:href="#DejaVuSans-36" transform="translate(301.953125 0.765625)"/>
     <use xlink:href="#DejaVuSans-2b" transform="translate(366.533203 39.046875) scale(0.7)"/>
     <use xlink:href="#DejaVuSans-32" transform="translate(425.185547 39.046875) scale(0.7)"/>
     <use xlink:href="#DejaVuSans-2e" transform="translate(469.72168 39.046875) scale(0.7)"/>
     <use xlink:href="#DejaVuSans-30" transform="translate(491.972656 39.046875) scale(0.7)"/>
     <use xlink:href="#DejaVuSans-2212" transform="translate(366.533203 -26.578125) scale(0.7)"/>
     <use xlink:href="#DejaVuSans-31" transform="translate(425.185547 -26.578125) scale(0.7)"/>
     <use xlink:href="#DejaVuSans-2e" transform="translate(469.72168 -26.578125) scale(0.7)"/>
     <use xlink:href="#DejaVuSans-31" transform="translate(491.972656 -26.578125) scale(0.7)"/>
    </g>
   </g>
  </g>
 </g>
 <defs>
  <clipPath id="p2db571e357">
   <rect x="36" y="34.56" width="107.307692" height="106.615385"/>
  </clipPath>
  <clipPath id="p7acbf0937a">
   <rect x="36" y="149.704615" width="107.307692" height="106.615385"/>
  </clipPath>
  <clipPath id="p93c39090ba">
   <rect x="151.892308" y="149.704615" width="107.307692" height="106.615385"/>
  </clipPath>
 </defs>
</svg>
