<svg version="1.2" xmlns="http://www.w3.org/2000/svg" viewBox="0 0 288 288" width="288" height="288"><defs><clipPath clipPathUnits="userSpaceOnUse" id="cp1"><path d="m313.44 37.55l-66.42 271.26-273.02-66.85 66.42-271.26z"/></clipPath><clipPath clipPathUnits="userSpaceOnUse" id="cp2"><path d="m313.44 37.55l-66.42 271.26-273.02-66.85 66.42-271.26z"/></clipPath><clipPath clipPathUnits="userSpaceOnUse" id="cp3"><path d="m313.44 37.55l-66.42 271.26-273.02-66.85 66.42-271.26z"/></clipPath><clipPath clipPathUnits="userSpaceOnUse" id="cp4"><path d="m313.44 37.55l-66.42 271.26-273.02-66.85 66.42-271.26z"/></clipPath></defs><style>.a{opacity:.62;fill:#98bed1}.b{opacity:.85;fill:#005e98}.c{opacity:.45;fill:none;stroke:#1a5978;stroke-width:1.2}.d{opacity:.95;fill:none;stroke:#006eb2;stroke-width:1.2}</style><g clip-path="url(#cp1)"><path class="a" d="m134.5 256.5l2.1 0.7 2.1 0.7 2.1 0.7 2.1 0.7 2.2 0.6 2.1 0.7 2.1 0.5 2.2 0.5 2.1 0.5 2.2 0.3 2.2 0.4 2.2 0.5 2.1 0.5 2.2 0.5 2.2 0.5 2.1 0.4 2.2 0.4 2.2 0.4 2.2 0.5 2.1 0.6 2.1 0.6 2.1 0.6 2.2 0.6 2.1 0.5 2.2 0.5 2.2 0.4 2.1 0.4 2 0.3 0.2 0.1 2.2 0.3 2.2 0.3 2.2 0.3 2.2 0.3 2.3 0.3 2.2 0.2 2.2 0.1h1.2 1.1l2.3-0.2 2.4-0.4 0.5-0.1 1.9-0.5 2.5-0.7 2.5-0.8 1.4-0.5 1.1-0.4 2.5-0.9 0.1-0.1 2.4-1 1-0.4 1.6-0.8 1.3-0.7 1.4-0.9 1.1-0.8 1.7-1.4 0.4-0.3 1.7-1.9 1-1.4 0.4-0.5 1.1-2 0.7-2.1 0.5-2.1 0.3-2.2-0.1-2.3v-0.4l-0.2-1.9-0.6-2.4-0.2-0.9-0.6-1.6-0.8-1.9-0.3-0.6-1.3-2.3-0.2-0.4-1.5-2.1-0.5-0.6-1.3-1.5-1.4-1.4-0.4-0.4-1.8-1.8-1.2-0.9-0.7-0.7-1.9-1.6-1.3-1-0.6-0.5-1.9-1.4-2-1.3-0.2-0.2-1.8-1.1-2-1.2-2-1.1-0.8-0.4-1.2-0.7-2-1.1-2-1-2.1-0.9-1.7-0.8-0.3-0.2-2.1-0.9-2-1-2-1.1-2-1.1-0.1-0.1-1.9-1.1-2-1.3-2-1.1-0.5-0.3-1.5-0.8-2-1.1-2-1.1-2-1.1-2-1.2-2-1.2-1.9-1.3h-0.1l-1.9-1.3-2-1.3-1.5-1-0.4-0.3-2-1.3-1.9-1.4-0.9-0.6-1.1-0.7-1.9-1.5-1.5-1.1-0.4-0.4-1.9-1.5-1.8-1.4-0.1-0.1-1.9-1.5-1.9-1.5-0.2-0.2-1.7-1.5-1.6-1.5-0.2-0.3-1.8-2.1-0.5-0.5-1.2-1.8-0.7-0.9-1-1.6-0.7-1.1-0.9-1.7-0.6-0.9-1-1.9-0.5-0.8-1.1-1.8-0.5-0.8-1.2-1.8-0.6-0.9-1-1.6-0.7-1.1-0.9-1.7-0.4-0.9-1-2.5v-0.1l-0.7-2.3-0.5-2.3v-0.1l-0.4-2.4-0.3-2.3-0.2-0.9-0.2-1.5-0.4-2.4-0.3-1.8-0.1-0.5-0.2-2.3-0.2-2.3v-2-0.3l0.1-2.2 0.3-2.2 0.3-2.2 0.4-2.2 0.5-2.1 0.6-2.2 0.6-2.1 0.7-2.1 0.8-2 0.7-2.1 0.7-2.1 0.5-1.3 0.2-0.8 0.8-2.1 0.8-2.1 0.8-2 0.9-2.1 1-2 0.9-1.7 0.1-0.3 1.2-2 1.1-1.9 1.2-2 0.3-0.5 0.9-1.5 1.1-2 1.2-2 0.7-1.2 0.5-0.7 1.2-2 1.4-1.9 0.5-0.9 0.8-1.1 1.3-1.9 1.2-2 0.4-0.6 0.8-1.4 1-2 1-2 0.9-2 0.8-2.1 0.4-1.2 0.3-0.9 0.6-2.1 0.6-2.1 0.4-2.2 0.3-1.6v-0.6l0.3-2.2 0.1-2.2-0.1-2.3-0.1-2.3-0.1-0.4-0.2-1.9-0.5-2.4-0.3-0.9-0.5-1.6-0.9-2.1-0.2-0.4-1.3-2.5-0.1-0.1-1.6-2.3-0.5-0.5-1.3-1.5-1.8-1.5-0.1-0.1-2-1.2-2-0.9-2.2-0.6-2.1-0.4-2.2-0.4-2.2-0.4-2.2-0.4-2.2-0.3-2.2-0.2h-0.3-2l-2.3 0.3-2.3 0.4h-0.1l-2.5 0.6-1.8 0.6-0.6 0.2-2.5 0.9-0.6 0.2-2 0.9-1.3 0.6-1.3 0.6-1.6 1-1 0.6-1.6 1-1.2 0.8-1.1 0.9-1.7 1.3-0.5 0.4-2.2 1.7h-0.1l-2.3 1.7-0.4 0.3-2.1 1.4-0.6 0.4-2 1.2-0.7 0.5-1.9 1.1-0.8 0.6-1.7 1.1-1 0.6-1.6 1-1.1 0.7-1.5 0.9-1.3 1-1 0.7-1.7 1.3-0.6 0.4-2.1 1.8-0.2 0.2-1.7 1.6-1.3 1.2-0.6 0.6-1.8 1.8-0.6 0.7-1.1 1.2-1.7 1.8-0.3 0.3-1.4 1.5-1.7 1.9-1.7 1.8-1.5 1.9v0.1l-1.4 1.9-1.3 1.9-0.8 1.2-0.5 0.7-1.4 2-1.3 1.9-0.3 0.5-1.1 1.4-1.4 2-1 1.5-0.3 0.4-1.3 1.9-1.2 2-0.9 1.3-0.4 0.7-1.4 1.9-1.4 1.9-0.2 0.3-1.4 1.6-1.7 1.8-2 1.8-1 1-0.9 0.8-1.6 1.9-0.6 0.8-0.8 1.1-1 2-0.7 2.1-0.6 2.1-0.3 2.2-0.4 2.2-0.3 2.2-0.5 2.1-0.6 2.1-0.7 2.1-0.9 2.1-0.9 2-0.9 2-0.3 0.8-0.6 1.3-0.9 2-0.8 2.1-0.6 2.1-0.5 2.2-0.4 2.1-0.3 2.2-0.3 2.2-0.2 2.2-0.1 0.5-0.2 1.7-0.1 2.2-0.1 2.3 0.1 2.3 0.2 1.3 0.1 1 0.6 2.4 0.4 1.4 0.4 1.1 0.9 2.5v0.2l0.8 2.2 0.5 1.9 0.2 0.6 0.6 2.4 0.3 1.8 0.2 0.6 0.6 2.4 0.4 1.5 0.3 0.9 1 2.5 0.1 0.2 1.1 2.4 0.4 0.8 1 1.8 0.6 1.1 0.8 1.5 0.8 1.3 0.7 1.3 0.9 1.4 0.7 1.3 0.9 1.4 0.8 1.3 0.8 1.4 0.8 1.2 0.8 1.5 0.7 1.2 0.9 1.6 0.6 1 1 1.8 0.5 0.8 1.2 1.8 0.6 0.9 1.1 1.5 1 1.3 0.7 0.8 1.8 2 0.1 0.1 1.7 1.9 0.8 1 1 1.1 1.3 1.7 0.4 0.5 1.7 2.3h0.1l1.6 2.3 0.5 0.5 1.3 1.6 1.3 1.3 0.5 0.5 1.9 1.5 2 1.3 0.2 0.1 1.8 1 2 1.1 2.1 1 2 1v0.1l2 1.1 2 1.2 1.9 1.2 0.5 0.3 1.5 1 2 1.1 2 1.1 1.4 0.7 0.6 0.4 2 1.1 2.1 1.1 2 1 1.3 0.7 0.7 0.4 2 1.1 2 1.1 2 1.1 0.8 0.4 1.2 0.7 2 1.1 2.1 1.1 2 1 0.5 0.2 1.5 0.8 2.1 0.8 2.1 0.8 2.1 0.8 2.1 0.8 2 0.8 2.1 0.8 1.4 0.5zm43.8-12l-1.9-0.7-2.1-0.9-2-1.1-2-1.2-0.9-0.6-1.1-0.6-2-1.1-2-0.9-2.2-0.5-2.2-0.3-2.2-0.1-2.3-0.1h-0.7l-1.6-0.1-2.2-0.2-2.1-0.5-2.1-0.7-1.9-0.9-0.2-0.1-1.9-1.3-2-1.3-1.5-0.9-0.5-0.4-2-1.1-2-1-2.1-0.8-2.1-0.7-2.1-0.6-2.2-0.5-2.2-0.4-2.1-0.6-2.1-0.6-2.1-0.8-0.2-0.1-1.9-0.8-2-1-2-1.2-1.8-1.1-0.2-0.2-1.9-1.5-1.9-1.5-0.1-0.1-1.8-1.4-1.9-1.4-1.1-0.7-0.9-0.5-2-1.1-2-1.1-2-1.1-0.5-0.2-1.5-1-2-1.2-1.9-1.4-0.2-0.1-1.8-1.3-1.9-1.6-0.4-0.3-1.4-1.3-1.9-1.7-0.2-0.2-1.6-1.7-0.9-1.1-0.9-1.1-1-1.7-0.6-1.1-0.7-1.4-0.7-1.8-0.3-0.8-1-2.5-0.2-0.3-0.9-2.2-0.5-1.2-0.7-1.4-0.9-1.5-0.6-1.1-1-1.4-1-1.3-0.8-1-1.6-1.9-0.1-0.2-1.8-2.1-0.3-0.5-1.3-2-0.4-0.7-1.1-2.5v-0.1l-0.6-2.3-0.5-2.4-0.3-2.3-0.2-2.4-0.1-2.2v-0.1l-0.1-2.2-0.1-2.3v-2.3l-0.1-1.4v-0.9-2.2l0.1-2.3 0.2-2.2 0.2-2.2 0.3-2.2v-0.6l0.2-1.6 0.2-2.2 0.3-2.2 0.3-2.2 0.4-2.2 0.5-2.1 0.8-2.1 0.8-2 1-2.1 0.2-0.5 0.8-1.5 1.1-2 1-2 1-2 0.5-1 0.6-1 1.1-2 1.2-2 1-1.6 0.2-0.3 1.4-2 1.4-1.9 0.5-0.6 1-1.3 1.6-1.9 0.5-0.5 1.3-1.3 1.7-1.7 0.2-0.1 2-1.8 0.7-0.5 1.5-1.2 1.3-1 0.9-0.7 2-1.7 0.1-0.1 1.8-1.8 1.2-1.5 0.3-0.4 1.4-1.9 1.2-2 0.7-1.2 0.5-0.7 1.2-2 1.3-1.9 0.6-0.8 1-1.1 1.7-1.9 0.4-0.4 1.7-1.3 1.2-1 0.9-0.8 2-1.6 0.1-0.1 1.9-1.8 1-1.1 0.7-0.8 1.7-1.8 0.6-0.6 1.4-1.2 1.5-1.1 1-0.6 1.6-0.8 1.4-0.7 1.1-0.4 2.5-0.8 0.3-0.1 2.1-0.4 2.3 0.1 2 0.8 1.3 1.4 0.5 0.7 0.7 1.9 0.6 2.1v0.3l0.3 2.3 0.1 2.3-0.2 2.2-0.5 2.1-0.8 2.1-1 2-1.3 2-0.5 0.6-1.1 1.3-1.6 1.8-0.4 0.4-1.4 1.5-1.6 1.8-0.1 0.1-1.5 1.8-1.4 1.9-0.5 0.7-0.8 1.3-1.1 1.9-1 2.1-0.9 2-0.6 1.3-0.3 0.8-0.8 2-0.8 2.1-0.9 2-0.8 2.1-0.9 2.1-0.9 2-0.1 0.1-0.9 1.9-1.1 2-0.9 2-0.9 2.1-0.8 2.1-0.5 1.3-0.2 0.8-0.6 2.1-0.3 1.8-0.1 0.3-0.2 2.2-0.2 2.3-0.1 2.2-0.1 2.3v2.2l-0.1 0.9v1.3 2.3l0.1 2.3 0.2 2.2v0.1l0.4 2.4 0.6 2.4v0.3l0.5 2.1 0.5 2.4 0.1 0.5 0.4 1.8 0.5 2.4 0.2 0.6 0.6 1.9 0.7 2.1 0.2 0.4 1.1 2.5 0.2 0.3 1.1 2.3 0.4 0.7 1 1.9 0.6 1.2 0.6 1.4 0.9 1.7 0.4 0.8 1.1 2.5v0.1l1.1 2.5 0.3 0.7 0.8 1.8 0.7 1.6 0.4 1 1 2.4 0.1 0.1 1.3 2.6 0.2 0.3 1.5 2.4 0.1 0.2 1.8 2 0.7 0.7 1.1 1 2 1.4 1.9 1.1h0.1l2 1.1 2 1.2 1.9 1.4h0.1l1.8 1.6 1.6 1.5 0.3 0.3 1.8 1.8 0.9 0.9 0.9 0.9 1.9 1.7 0.8 0.5 1.1 1.1 1.9 1.6 0.5 0.5 1.3 1.4 1.3 1.5 0.4 0.6 1.7 2.1 0.1 0.2 1.7 2.1 0.8 0.7 1.1 0.9 2 1.1 2.1 0.7 2.2 0.3h2.3l2.3-0.1h0.1l2.2 0.1 2.2 0.3 2.1 0.6 2.1 0.8 1.7 0.7 0.3 0.2 2 1.1 2 1.3 1.8 1.2 0.2 0.1 1.8 1.7 1.5 1.3 0.4 0.4 1.8 2 0.6 0.6 1.1 1.5 1.4 1.4 0.4 0.7 1.8 2v2.3l-0.6 0.1-2.4 1.4-0.2 0.1-2.6 1.3-0.3 0.2-2.3 0.9-1.1 0.5-1.4 0.3-2.3 0.3h-2.3l-1.7-0.3h-0.5l-2.1-0.6z"/></g><g clip-path="url(#cp2)"><path class="b" d="m178.5 244.5l2.1 0.5 0.4 0.1 1.8 0.3h2.3l2.3-0.3 1.4-0.4 1.1-0.4 2.3-1 0.3-0.1 2.6-1.4h0.1l2.5-1.4 0.6-0.1v-2.3l-1.8-2-0.4-0.8-1.4-1.3-1.1-1.6-0.6-0.5-1.8-2-0.4-0.4-1.5-1.4-1.9-1.6-0.1-0.1-1.8-1.3-2-1.2-2-1.1-0.4-0.2-1.6-0.8-2.1-0.7-2.2-0.6-2.2-0.3-2.2-0.1h-2.3-2.3l-2.2-0.3-2.1-0.6-2-1.1-1.1-1-0.8-0.7-1.8-2.1v-0.1l-1.7-2.1-0.4-0.7-1.3-1.5-1.3-1.4-0.6-0.5-1.8-1.6-1.2-1-0.7-0.6-1.9-1.6-0.9-0.9-0.9-0.9-1.9-1.9-0.2-0.2-1.6-1.5-1.8-1.6-0.1-0.1-1.9-1.3-2-1.2-2-1.1-0.1-0.1-1.9-1.1-2-1.3-1.2-1.1-0.6-0.6-1.8-2.1-0.2-0.2-1.5-2.3-0.1-0.4-1.3-2.5-0.1-0.2-1-2.4-0.5-0.9-0.6-1.6-0.8-1.8-0.3-0.7-1.1-2.6-0.1-0.1-1.1-2.4-0.3-0.8-0.9-1.8-0.7-1.4-0.6-1.1-0.9-1.9-0.4-0.7-1.1-2.3-0.2-0.3-1.1-2.6-0.2-0.4-0.8-2.1-0.5-1.8-0.2-0.6-0.5-2.4-0.4-1.8-0.1-0.6-0.5-2.4-0.5-2.1v-0.3l-0.6-2.3-0.4-2.4v-0.1l-0.3-2.2-0.1-2.3 0.1-2.3v-1.3l0.1-0.9v-2.3l0.1-2.2 0.1-2.3 0.1-2.2 0.3-2.2 0.1-0.3 0.3-1.9 0.6-2.1 0.2-0.7 0.5-1.4 0.8-2 0.9-2.1 0.9-2 1-2 1-2v-0.1l1-2 0.9-2 0.8-2.1 0.8-2.1 0.9-2 0.8-2.1 0.3-0.8 0.5-1.2 0.9-2.1 1-2 1.2-2 0.8-1.2 0.5-0.7 1.4-1.9 1.4-1.8 0.1-0.1 1.7-1.9 1.4-1.4 0.3-0.4 1.7-1.9 1.1-1.3 0.5-0.6 1.3-1.9 1-2 0.8-2.1 0.4-2.1 0.2-2.3v-2.2l-0.3-2.4v-0.2l-0.6-2.2-0.7-1.8-0.5-0.7-1.3-1.4-2-0.9h-2.3l-2.1 0.4h-0.3l-2.5 0.8-1.1 0.5-1.4 0.6-1.7 0.9-1 0.6-1.4 1.1-1.4 1.2-0.6 0.5-1.7 1.9-0.7 0.7-1.1 1.1-1.8 1.8-0.2 0.1-1.9 1.7-0.9 0.7-1.2 1-1.7 1.4-0.4 0.4-1.7 1.8-1 1.1-0.6 0.8-1.3 2-1.2 1.9-0.5 0.8-0.7 1.2-1.3 1.9-1.3 2-0.3 0.4-1.2 1.5-1.8 1.8-0.1 0.1-2 1.7-0.9 0.6-1.3 1.1-1.5 1.1-0.7 0.6-2 1.8-0.2 0.1-1.7 1.7-1.3 1.3-0.5 0.5-1.6 1.9-1.1 1.2-0.5 0.7-1.3 1.9-1.4 1.9-0.2 0.4-1 1.6-1.2 2-1.1 1.9-0.6 1.1-0.5 0.9-1 2.1-1.1 2-1 2-0.8 1.4-0.2 0.6-1 2-0.8 2.1-0.8 2.1-0.6 2.1-0.4 2.1-0.2 2.2-0.3 2.2-0.2 2.2-0.2 1.7v0.6l-0.3 2.2-0.2 2.2-0.2 2.2-0.1 2.2v2.3 0.8 1.5l0.1 2.2 0.1 2.3 0.1 2.3 0.1 2.3 0.2 2.3 0.3 2.3 0.4 2.4 0.7 2.4 1.1 2.6 0.3 0.7 1.3 2 0.4 0.5 1.8 2.1 0.1 0.2 1.6 1.9 0.8 0.9 1 1.3 1 1.5 0.6 1 0.9 1.6 0.7 1.4 0.5 1.2 0.9 2.2 0.1 0.3 1 2.5 0.3 0.7 0.8 1.8 0.7 1.5 0.6 1.1 1 1.6 0.8 1.1 1 1.1 1.6 1.8 0.2 0.2 1.8 1.6 1.5 1.3 0.4 0.4 1.9 1.5 1.8 1.4 0.1 0.1 2 1.3 2 1.3 1.5 0.9 0.4 0.3 2.1 1.1 2 1 2 1.1 0.9 0.6 1.1 0.7 1.9 1.3 1.8 1.4 0.1 0.2 1.9 1.5 1.9 1.5 0.2 0.1 1.8 1.2 2 1.1 2 1 1.9 0.9h0.2l2.1 0.8 2.1 0.7 2.1 0.5 2.2 0.5 2.1 0.5 2.2 0.5 2.1 0.7 2.1 0.9 2 0.9 2 1.2 0.5 0.3 1.5 1 1.9 1.3 2 1.3 0.2 0.1 1.8 0.9 2.1 0.7 2.2 0.4 2.2 0.3 1.6 0.1h0.7 2.2l2.3 0.2 2.2 0.3 2.1 0.5 2.1 0.8 2 1.1 1.1 0.7 0.9 0.5 2 1.2 2 1.1 2.1 1 1.9 0.6z"/></g><g clip-path="url(#cp3)"><path class="c" d="m134.5 256.5l2.1 0.7 2.1 0.7 2.1 0.7 2.1 0.7 2.2 0.6 2.1 0.7 2.1 0.5 2.2 0.5 2.1 0.5 2.2 0.3 2.2 0.4 2.2 0.5 2.1 0.5 2.2 0.5 2.2 0.5 2.1 0.4 2.2 0.4 2.2 0.4 2.2 0.5 2.1 0.6 2.1 0.6 2.1 0.6 2.2 0.6 2.1 0.5 2.2 0.5 2.2 0.4 2.1 0.4 2 0.3 0.2 0.1 2.2 0.3 2.2 0.3 2.2 0.3 2.2 0.3 2.3 0.3 2.2 0.2 2.2 0.1h1.2 1.1l2.3-0.2 2.4-0.4 0.5-0.1 1.9-0.5 2.5-0.7 2.5-0.8 1.4-0.5 1.1-0.4 2.5-0.9 0.1-0.1 2.4-1 1-0.4 1.6-0.8 1.3-0.7 1.4-0.9 1.1-0.8 1.7-1.4 0.4-0.3 1.7-1.9 1-1.4 0.4-0.5 1.1-2 0.7-2.1 0.5-2.1 0.3-2.2-0.1-2.3v-0.4l-0.2-1.9-0.6-2.4-0.2-0.9-0.6-1.6-0.8-1.9-0.3-0.6-1.3-2.3-0.2-0.4-1.5-2.1-0.5-0.6-1.3-1.5-1.4-1.4-0.4-0.4-1.8-1.8-1.2-0.9-0.7-0.7-1.9-1.6-1.3-1-0.6-0.5-1.9-1.4-2-1.3-0.2-0.2-1.8-1.1-2-1.2-2-1.1-0.8-0.4-1.2-0.7-2-1.1-2-1-2.1-0.9-1.7-0.8-0.3-0.2-2.1-0.9-2-1-2-1.1-2-1.1-0.1-0.1-1.9-1.1-2-1.3-2-1.1-0.5-0.3-1.5-0.8-2-1.1-2-1.1-2-1.1-2-1.2-2-1.2-1.9-1.3h-0.1l-1.9-1.3-2-1.3-1.5-1-0.4-0.3-2-1.3-1.9-1.4-0.9-0.6-1.1-0.7-1.9-1.5-1.5-1.1-0.4-0.4-1.9-1.5-1.8-1.4-0.1-0.1-1.9-1.5-1.9-1.5-0.2-0.2-1.7-1.5-1.6-1.5-0.2-0.3-1.8-2.1-0.5-0.5-1.2-1.8-0.7-0.9-1-1.6-0.7-1.1-0.9-1.7-0.6-0.9-1-1.9-0.5-0.8-1.1-1.8-0.5-0.8-1.2-1.8-0.6-0.9-1-1.6-0.7-1.1-0.9-1.7-0.4-0.9-1-2.5v-0.1l-0.7-2.3-0.5-2.3v-0.1l-0.4-2.4-0.3-2.3-0.2-0.9-0.2-1.5-0.4-2.4-0.3-1.8-0.1-0.5-0.2-2.3-0.2-2.3v-2-0.3l0.1-2.2 0.3-2.2 0.3-2.2 0.4-2.2 0.5-2.1 0.6-2.2 0.6-2.1 0.7-2.1 0.8-2 0.7-2.1 0.7-2.1 0.5-1.3 0.2-0.8 0.8-2.1 0.8-2.1 0.8-2 0.9-2.1 1-2 0.9-1.7 0.1-0.3 1.2-2 1.1-1.9 1.2-2 0.3-0.5 0.9-1.5 1.1-2 1.2-2 0.7-1.2 0.5-0.7 1.2-2 1.4-1.9 0.5-0.9 0.8-1.1 1.3-1.9 1.2-2 0.4-0.6 0.8-1.4 1-2 1-2 0.9-2 0.8-2.1 0.4-1.2 0.3-0.9 0.6-2.1 0.6-2.1 0.4-2.2 0.3-1.6v-0.6l0.3-2.2 0.1-2.2-0.1-2.3-0.1-2.3-0.1-0.4-0.2-1.9-0.5-2.4-0.3-0.9-0.5-1.6-0.9-2.1-0.2-0.4-1.3-2.5-0.1-0.1-1.6-2.3-0.5-0.5-1.3-1.5-1.8-1.5-0.1-0.1-2-1.2-2-0.9-2.2-0.6-2.1-0.4-2.2-0.4-2.2-0.4-2.2-0.4-2.2-0.3-2.2-0.2h-0.3-2l-2.3 0.3-2.3 0.4h-0.1l-2.5 0.6-1.8 0.6-0.6 0.2-2.5 0.9-0.6 0.2-2 0.9-1.3 0.6-1.3 0.6-1.6 1-1 0.6-1.6 1-1.2 0.8-1.1 0.9-1.7 1.3-0.5 0.4-2.2 1.7h-0.1l-2.3 1.7-0.4 0.3-2.1 1.4-0.6 0.4-2 1.2-0.7 0.5-1.9 1.1-0.8 0.6-1.7 1.1-1 0.6-1.6 1-1.1 0.7-1.5 0.9-1.3 1-1 0.7-1.7 1.3-0.6 0.4-2.1 1.8-0.2 0.2-1.7 1.6-1.3 1.2-0.6 0.6-1.8 1.8-0.6 0.7-1.1 1.2-1.7 1.8-0.3 0.3-1.4 1.5-1.7 1.9-1.7 1.8-1.5 1.9v0.1l-1.4 1.9-1.3 1.9-0.8 1.2-0.5 0.7-1.4 2-1.3 1.9-0.3 0.5-1.1 1.4-1.4 2-1 1.5-0.3 0.4-1.3 1.9-1.2 2-0.9 1.3-0.4 0.7-1.4 1.9-1.4 1.9-0.2 0.3-1.4 1.6-1.7 1.8-2 1.8-1 1-0.9 0.8-1.6 1.9-0.6 0.8-0.8 1.1-1 2-0.7 2.1-0.6 2.1-0.3 2.2-0.4 2.2-0.3 2.2-0.5 2.1-0.6 2.1-0.7 2.1-0.9 2.1-0.9 2-0.9 2-0.3 0.8-0.6 1.3-0.9 2-0.8 2.1-0.6 2.1-0.5 2.2-0.4 2.1-0.3 2.2-0.3 2.2-0.2 2.2-0.1 0.5-0.2 1.7-0.1 2.2-0.1 2.3 0.1 2.3 0.2 1.3 0.1 1 0.6 2.4 0.4 1.4 0.4 1.1 0.9 2.5v0.2l0.8 2.2 0.5 1.9 0.2 0.6 0.6 2.4 0.3 1.8 0.2 0.6 0.6 2.4 0.4 1.5 0.3 0.9 1 2.5 0.1 0.2 1.1 2.4 0.4 0.8 1 1.8 0.6 1.1 0.8 1.5 0.8 1.3 0.7 1.3 0.9 1.4 0.7 1.3 0.9 1.4 0.8 1.3 0.8 1.4 0.8 1.2 0.8 1.5 0.7 1.2 0.9 1.6 0.6 1 1 1.8 0.5 0.8 1.2 1.8 0.6 0.9 1.1 1.5 1 1.3 0.7 0.8 1.8 2 0.1 0.1 1.7 1.9 0.8 1 1 1.1 1.3 1.7 0.4 0.5 1.7 2.3h0.1l1.6 2.3 0.5 0.5 1.3 1.6 1.3 1.3 0.5 0.5 1.9 1.5 2 1.3 0.2 0.1 1.8 1 2 1.1 2.1 1 2 1v0.1l2 1.1 2 1.2 1.9 1.2 0.5 0.3 1.5 1 2 1.1 2 1.1 1.4 0.7 0.6 0.4 2 1.1 2.1 1.1 2 1 1.3 0.7 0.7 0.4 2 1.1 2 1.1 2 1.1 0.8 0.4 1.2 0.7 2 1.1 2.1 1.1 2 1 0.5 0.2 1.5 0.8 2.1 0.8 2.1 0.8 2.1 0.8 2.1 0.8 2 0.8 2.1 0.8 1.4 0.5z"/></g><g clip-path="url(#cp4)"><path class="d" d="m178.5 244.5l2.1 0.5 0.4 0.1 1.8 0.3h2.3l2.3-0.3 1.4-0.4 1.1-0.4 2.3-1 0.3-0.1 2.6-1.4h0.1l2.5-1.4 0.6-0.1v-2.3l-1.8-2-0.4-0.8-1.4-1.3-1.1-1.6-0.6-0.5-1.8-2-0.4-0.4-1.5-1.4-1.9-1.6-0.1-0.1-1.8-1.3-2-1.2-2-1.1-0.4-0.2-1.6-0.8-2.1-0.7-2.2-0.6-2.2-0.3-2.2-0.1h-2.3-2.3l-2.2-0.3-2.1-0.6-2-1.1-1.1-1-0.8-0.7-1.8-2.1v-0.1l-1.7-2.1-0.4-0.7-1.3-1.5-1.3-1.4-0.6-0.5-1.8-1.6-1.2-1-0.7-0.6-1.9-1.6-0.9-0.9-0.9-0.9-1.9-1.9-0.2-0.2-1.6-1.5-1.8-1.6-0.1-0.1-1.9-1.3-2-1.2-2-1.1-0.1-0.1-1.9-1.1-2-1.3-1.2-1.1-0.6-0.6-1.8-2.1-0.2-0.2-1.5-2.3-0.1-0.4-1.3-2.5-0.1-0.2-1-2.4-0.5-0.9-0.6-1.6-0.8-1.8-0.3-0.7-1.1-2.6-0.1-0.1-1.1-2.4-0.3-0.8-0.9-1.8-0.7-1.4-0.6-1.1-0.9-1.9-0.4-0.7-1.1-2.3-0.2-0.3-1.1-2.6-0.2-0.4-0.8-2.1-0.5-1.8-0.2-0.6-0.5-2.4-0.4-1.8-0.1-0.6-0.5-2.4-0.5-2.1v-0.3l-0.6-2.3-0.4-2.4v-0.1l-0.3-2.2-0.1-2.3 0.1-2.3v-1.3l0.1-0.9v-2.3l0.1-2.2 0.1-2.3 0.1-2.2 0.3-2.2 0.1-0.3 0.3-1.9 0.6-2.1 0.2-0.7 0.5-1.4 0.8-2 0.9-2.1 0.9-2 1-2 1-2v-0.1l1-2 0.9-2 0.8-2.1 0.8-2.1 0.9-2 0.8-2.1 0.3-0.8 0.5-1.2 0.9-2.1 1-2 1.2-2 0.8-1.2 0.5-0.7 1.4-1.9 1.4-1.8 0.1-0.1 1.7-1.9 1.4-1.4 0.3-0.4 1.7-1.9 1.1-1.3 0.5-0.6 1.3-1.9 1-2 0.8-2.1 0.4-2.1 0.2-2.3v-2.2l-0.3-2.4v-0.2l-0.6-2.2-0.7-1.8-0.5-0.7-1.3-1.4-2-0.9h-2.3l-2.1 0.4h-0.3l-2.5 0.8-1.1 0.5-1.4 0.6-1.7 0.9-1 0.6-1.4 1.1-1.4 1.2-0.6 0.5-1.7 1.9-0.7 0.7-1.1 1.1-1.8 1.8-0.2 0.1-1.9 1.7-0.9 0.7-1.2 1-1.7 1.4-0.4 0.4-1.7 1.8-1 1.1-0.6 0.8-1.3 2-1.2 1.9-0.5 0.8-0.7 1.2-1.3 1.9-1.3 2-0.3 0.4-1.2 1.5-1.8 1.8-0.1 0.1-2 1.7-0.9 0.6-1.3 1.1-1.5 1.1-0.7 0.6-2 1.8-0.2 0.1-1.7 1.7-1.3 1.3-0.5 0.5-1.6 1.9-1.1 1.2-0.5 0.7-1.3 1.9-1.4 1.9-0.2 0.4-1 1.6-1.2 2-1.1 1.9-0.6 1.1-0.5 0.9-1 2.1-1.1 2-1 2-0.8 1.4-0.2 0.6-1 2-0.8 2.1-0.8 2.1-0.6 2.1-0.4 2.1-0.2 2.2-0.3 2.2-0.2 2.2-0.2 1.7v0.6l-0.3 2.2-0.2 2.2-0.2 2.2-0.1 2.2v2.3 0.8 1.5l0.1 2.2 0.1 2.3 0.1 2.3 0.1 2.3 0.2 2.3 0.3 2.3 0.4 2.4 0.7 2.4 1.1 2.6 0.3 0.7 1.3 2 0.4 0.5 1.8 2.1 0.1 0.2 1.6 1.9 0.8 0.9 1 1.3 1 1.5 0.6 1 0.9 1.6 0.7 1.4 0.5 1.2 0.9 2.2 0.1 0.3 1 2.5 0.3 0.7 0.8 1.8 0.7 1.5 0.6 1.1 1 1.6 0.8 1.1 1 1.1 1.6 1.8 0.2 0.2 1.8 1.6 1.5 1.3 0.4 0.4 1.9 1.5 1.8 1.4 0.1 0.1 2 1.3 2 1.3 1.5 0.9 0.4 0.3 2.1 1.1 2 1 2 1.1 0.9 0.6 1.1 0.7 1.9 1.3 1.8 1.4 0.1 0.2 1.9 1.5 1.9 1.5 0.2 0.1 1.8 1.2 2 1.1 2 1 1.9 0.9h0.2l2.1 0.8 2.1 0.7 2.1 0.5 2.2 0.5 2.1 0.5 2.2 0.5 2.1 0.7 2.1 0.9 2 0.9 2 1.2 0.5 0.3 1.5 1 1.9 1.3 2 1.3 0.2 0.1 1.8 0.9 2.1 0.7 2.2 0.4 2.2 0.3 1.6 0.1h0.7 2.2l2.3 0.2 2.2 0.3 2.1 0.5 2.1 0.8 2 1.1 1.1 0.7 0.9 0.5 2 1.2 2 1.1 2.1 1 1.9 0.6z"/></g></svg>